<svg width="252.046" height="25" viewBox="0 0 252.046 25" xmlns="http://www.w3.org/2000/svg"><path d="M3.64 9.856q-.827 0-1.413-.333-.585-.333-.958-.872-.373-.54-.546-1.229-.172-.689-.172-1.4 0-.736.184-1.43.184-.695.568-1.229.385-.534.97-.855.586-.322 1.39-.322.298 0 .597.04.298.04.62.202.505.252.855.648t.569.873q.218.476.315 1.01.098.534.098 1.062 0 .735-.178 1.424t-.557 1.223q-.379.534-.959.861-.58.327-1.383.327zm-.012-.895q.884 0 1.436-.775.55-.775.55-2.165 0-.689-.149-1.228-.149-.54-.413-.919t-.626-.58q-.361-.2-.798-.2-.895 0-1.44.774-.546.776-.546 2.153 0 1.39.545 2.165.546.775 1.441.775zm7.176 2.813v-.93q0-.907.058-1.487.057-.58.115-.89l-.104-.011q-.16.665-.505 1.027-.344.362-.953.362-.46 0-.798-.247-.339-.247-.568-.66-.23-.414-.345-.953-.114-.54-.114-1.125 0-.598.114-1.131.115-.534.345-.936.23-.402.568-.632.339-.23.798-.23.609 0 .953.362.345.362.505 1.028l.104-.012q-.058-.31-.115-.918-.058-.609-.058-1.343V2.29h.942v.758q0 .734-.057 1.343-.058.608-.115.918l.103.012q.16-.666.505-1.028.345-.361.953-.361.448 0 .793.23.344.229.574.63.23.403.344.937.115.533.115 1.13 0 .586-.115 1.126-.115.54-.344.953-.23.413-.574.66-.345.247-.793.247-.608 0-.953-.362-.344-.362-.505-1.027l-.103.011q.057.31.115.89.057.58.057 1.487v.93h-.942zM9.691 9.03q.493 0 .786-.569.293-.568.293-1.601 0-1.01-.293-1.59-.293-.58-.786-.58-.483 0-.798.58-.316.58-.316 1.59 0 1.033.316 1.601.315.569.798.569zm3.157 0q.483 0 .804-.569.321-.568.321-1.601 0-1.01-.321-1.59-.321-.58-.804-.58-.482 0-.775.58-.293.58-.293 1.59 0 1.033.293 1.601.293.569.775.569zm5.42.815q-1.148 0-1.791-.77-.643-.769-.643-2.215 0-1.447.643-2.216.643-.77 1.79-.77 1.149 0 1.792.77.643.769.643 2.216 0 1.446-.643 2.216-.643.769-1.791.769zm0-.792q.585 0 .981-.54.397-.54.397-1.653 0-1.114-.397-1.66-.396-.545-.981-.545-.597 0-.988.545-.39.546-.39 1.66 0 1.113.39 1.653t.988.54zm3.525-5.064h.987v.092q0 .218-.057.568-.058.35-.115.66l.103.012q.195-.677.58-1.033.385-.356 1.131-.356.609 0 1.016.27.408.27.666.688.258.42.368.942.109.522.109 1.028 0 .493-.12 1.027-.121.534-.38.965-.258.43-.666.712-.407.28-.993.28-.746 0-1.13-.355-.386-.356-.58-1.033l-.104.011q.057.31.115.66.057.35.057.569v2.078h-.987V3.989zm2.388 5.04q.62 0 1.022-.562.402-.563.402-1.607 0-1.01-.408-1.59-.408-.58-1.016-.58-.62 0-.988.58-.367.58-.367 1.59 0 1.044.367 1.607.368.563.988.563zm9.518-5.04l.23 5.741h-.976l-.126-3.422q-.012-.333 0-.706.011-.373 0-.798h-.115q-.034.207-.075.408-.04.2-.103.425-.063.224-.15.5-.085.275-.189.63L31.3 9.685h-1.206l-.964-3.307-.127-.419q-.057-.19-.109-.373-.051-.184-.092-.367-.04-.184-.086-.414h-.115q.023.46.03.787.005.327-.007.626l-.103 3.513h-.884l.264-5.741h1.424l.907 3.066q.092.321.247.85.155.528.27 1.09h.011q.092-.379.224-.907t.281-.999l.976-3.1H33.7zm1.62 0h.952v2.205q0 .31-.011.654-.012.344-.035.677-.023.333-.057.626t-.092.488l.104.046q.08-.184.155-.384.074-.201.183-.448.11-.247.264-.569.155-.321.396-.746l1.447-2.549h.953V9.73h-.953l.012-2.388q.011-.62.057-1.189.046-.568.138-1.004l-.092-.023q-.08.183-.155.373t-.19.442q-.114.253-.28.58-.167.327-.431.786L36.306 9.73h-.988V3.989zm7.98 5.741h-.988V4.862h-1.837v-.873h4.661v.873h-1.837V9.73zM49.2 7.813l.953.011q-.023.964-.597 1.493-.574.528-1.585.528-.62 0-1.073-.23-.454-.23-.746-.626-.293-.396-.431-.935-.138-.54-.138-1.149 0-.643.15-1.194.149-.55.447-.958.299-.408.752-.643.454-.236 1.062-.236.552 0 .953.195.402.196.666.523t.39.77q.127.441.127.935 0 .15-.011.304-.012.155-.035.316h-3.502q.012 1.137.425 1.636.413.5 1.022.5.448 0 .81-.276.361-.276.361-.964zm-1.252-3.158q-.62 0-.964.454-.344.453-.39 1.188h2.572v-.103q0-.77-.316-1.154-.316-.385-.902-.385zm9.668 4.306h.792v2.308h-.826V9.73h-3.847v1.539h-.826V8.96h.103q.413 0 .626-.356.212-.356.338-.988.035-.172.064-.557.028-.384.046-.878.017-.494.034-1.068.017-.574.029-1.125h3.467v4.972zm-3.594 0h2.641V4.885h-1.71q-.035.85-.075 1.538-.04.69-.075.976-.138 1.114-.78 1.481v.08zm8.566-1.148l.953.011q-.023.964-.597 1.493-.574.528-1.585.528-.62 0-1.073-.23-.454-.23-.747-.626-.292-.396-.43-.935-.138-.54-.138-1.149 0-.643.15-1.194.149-.55.447-.958.299-.408.752-.643.454-.236 1.062-.236.551 0 .953.195.402.196.666.523t.39.77q.127.441.127.935 0 .15-.012.304-.011.155-.034.316H59.97q.012 1.137.425 1.636.413.5 1.022.5.448 0 .81-.276.36-.276.36-.964zm-1.252-3.158q-.62 0-.964.454-.345.453-.39 1.188h2.571v-.103q0-.77-.315-1.154-.316-.385-.902-.385zm7.98.896q.092.344.127.66.034.316.034.649 0 .631-.16 1.182-.173.597-.523 1.005-.35.407-.787.603-.24.114-.482.155-.241.04-.482.04t-.534-.035q-.293-.034-.591-.183-.39-.196-.643-.5t-.402-.723q-.15-.42-.207-.965-.057-.545-.057-1.222.023-.506.057-1.08.035-.574.218-1.12.184-.545.586-1.021.402-.477 1.16-.775.367-.138.66-.236.293-.097.54-.183.246-.086.476-.184.23-.098.46-.247l.103.919q-.138.138-.305.23-.166.091-.373.166-.207.074-.47.15-.265.074-.61.177-.93.299-1.406.959-.476.66-.442 1.762h.172q.07-.459.247-.786.178-.327.437-.54.258-.212.562-.316.304-.103.637-.103.793 0 1.304.436.51.437.694 1.126zm-2.262 3.502q.287 0 .534-.132.247-.133.43-.408.185-.276.294-.689.109-.413.109-.964 0-1.103-.396-1.654-.397-.551-.982-.551-.597 0-.988.551-.39.551-.39 1.642 0 1.125.385 1.665.384.54 1.004.54zm6.912-1.24l.953.011q-.022.964-.597 1.493-.574.528-1.584.528-.62 0-1.074-.23-.453-.23-.746-.626t-.43-.935q-.138-.54-.138-1.149 0-.643.149-1.194.15-.55.448-.958.298-.408.752-.643.453-.236 1.062-.236.551 0 .953.195.402.196.666.523t.39.77q.127.441.127.935 0 .15-.012.304-.011.155-.034.316h-3.502q.011 1.137.424 1.636.414.5 1.022.5.448 0 .81-.276.361-.276.361-.964zm-1.251-3.158q-.62 0-.965.454-.344.453-.39 1.188h2.572v-.103q0-.77-.316-1.154-.315-.385-.901-.385zm5.557 5.075h-.987V4.862h-1.837v-.873h4.661v.873h-1.837V9.73zm4.72.115q-1.149 0-1.792-.77-.643-.769-.643-2.215 0-1.447.643-2.216.643-.77 1.791-.77t1.791.77q.643.769.643 2.216 0 1.446-.643 2.216-.643.769-1.79.769zm0-.792q.585 0 .981-.54t.396-1.653q0-1.114-.396-1.66-.396-.545-.982-.545-.597 0-.987.545-.39.546-.39 1.66 0 1.113.39 1.653t.987.54zm3.662.677V3.989h2.469q.321 0 .625.075.305.074.54.247.235.172.373.442t.138.66q0 .195-.069.396-.069.2-.212.385-.144.183-.368.321t-.534.207v.08q.39.023.66.155t.431.322q.16.19.236.413.074.224.074.43 0 .529-.275.92-.276.39-.827.562-.23.08-.482.103-.253.023-.563.023h-2.216zm.942-.758h1.354q.483 0 .793-.212.31-.213.31-.695 0-.241-.092-.407-.092-.167-.241-.27-.15-.104-.345-.155-.195-.052-.39-.052h-1.39v1.791zm0-2.514h1.182q.425 0 .746-.23.322-.23.322-.677 0-.437-.281-.632-.282-.195-.65-.195h-1.32v1.734zm5.89 3.169L91.59 3.989h1.034l.86 2.767q.15.46.236.77t.138.522q.052.212.08.356.029.143.052.293h.08q.023-.15.144-.684.12-.533.362-1.36l.769-2.664h1.022l-1.906 5.615-.655 2.135h-.964l.643-2.112zm4.581.103h-.953V3.989h.953v2.365h.965q.08-.746.401-1.355.322-.608.93-.907.23-.114.465-.166.236-.052.465-.052.23 0 .465.04.236.04.465.155.402.196.747.603.344.408.505 1.005.069.264.11.557.04.293.04.626 0 .332-.04.625-.041.293-.11.557-.16.597-.505 1.005-.345.407-.747.603-.23.114-.465.155-.235.04-.465.04-.23 0-.465-.04-.235-.04-.465-.155-.677-.322-.981-.96-.305-.636-.362-1.429h-.953V9.73zm3.226-.677q.552 0 .925-.54t.373-1.653q0-1.103-.373-1.654-.373-.551-.925-.551-.562 0-.93.551-.367.551-.367 1.654 0 1.113.367 1.653.368.54.93.54zm6.694.677h-.976V3.989h.976v2.492h.529q.367 0 .568-.161.2-.16.339-.528.08-.218.16-.483.08-.264.161-.51.08-.247.167-.46.086-.212.19-.35h1.101q-.172.172-.292.448-.121.275-.201.505-.127.356-.213.603t-.19.453q-.171.345-.407.511-.235.167-.603.247v.104q.437.08.66.264.224.183.374.574.057.16.155.453.097.293.212.58.126.299.241.54.115.24.31.459H110.1q-.092-.115-.172-.304-.08-.19-.155-.42-.075-.229-.15-.482-.074-.252-.154-.505-.127-.39-.322-.608-.195-.219-.631-.219h-.529V9.73zm4.915-4.042h-.93q-.058-.803.476-1.309.534-.505 1.567-.505 1.08 0 1.505.546.424.545.424 1.521V9.73h-.976v-.092q0-.115.064-.43.063-.316.12-.615h-.103q-.184.528-.557.89-.373.362-1.12.362-.447 0-.763-.138t-.523-.367q-.206-.23-.304-.523-.097-.293-.097-.603 0-.711.315-1.113.316-.402.804-.609.488-.207 1.068-.281.58-.075 1.108-.12v-.219q0-1.24-1.068-1.24-.563 0-.832.287-.27.287-.178.77zm.826 3.422q.551 0 .879-.402.327-.402.373-1.022.034-.516 0-1.045-.723.058-1.177.178-.454.12-.718.305-.264.183-.361.419-.098.235-.098.522 0 .482.31.764.31.281.792.281zm3.755-5.121h.987v.092q0 .218-.057.568t-.115.66l.103.012q.196-.677.58-1.033.385-.356 1.131-.356.609 0 1.016.27.408.27.666.688.259.42.368.942.109.522.109 1.028 0 .493-.12 1.027-.121.534-.38.965-.258.43-.666.712-.407.28-.993.28-.746 0-1.13-.355-.385-.356-.58-1.033l-.104.011q.058.31.115.66.057.35.057.569v2.078h-.987V3.989zm2.388 5.04q.62 0 1.022-.562.402-.563.402-1.607 0-1.01-.408-1.59-.407-.58-1.016-.58-.62 0-.987.58-.368.58-.368 1.59 0 1.044.368 1.607.367.563.987.563zm5.672.701h-.987V4.862h-1.837v-.873h4.661v.873h-1.837V9.73zm4.065-.103l-1.895-5.638h1.034l.86 2.767q.15.46.236.77t.138.522q.052.212.08.356.03.143.052.293h.08q.023-.15.144-.684.12-.533.362-1.36l.769-2.664h1.022l-1.906 5.615-.655 2.135h-.964l.643-2.112zM.138 14.92h5.465v.895H3.376v6.545h-1.01v-6.545H.137v-.895zm6.28 7.44v-5.741q.276.092.506.092.24 0 .493-.092v5.741h-.999zm.506-6.154q-.287 0-.483-.155-.195-.155-.195-.385t.195-.385q.196-.155.483-.155t.476.155q.19.155.19.385t-.19.385q-.19.155-.476.155zm3.054 6.154h-1v-5.741h.92v.092q0 .218-.064.568l-.12.66.103.012q.172-.666.609-1.028.436-.361 1.136-.361.322 0 .626.086t.534.31q.23.224.373.608.144.385.144.982v3.812h-1v-3.513q0-.827-.246-1.177-.247-.35-.764-.35-.516 0-.884.482-.367.482-.367 1.458v3.1zm4.719 0v-7.923h.976v3.422q0 .333-.017.597-.018.264-.052.488-.035.224-.069.425-.034.2-.069.42h.092q.023-.07.057-.133.035-.063.058-.12.092-.207.195-.374.103-.166.247-.356.143-.19.339-.43l.482-.597.918-1.16h1.229l-2.067 2.377 2.09 3.364H17.9l-1.584-2.721-.643.7v2.021h-.976zm7.222.115q-1.148 0-1.791-.77-.643-.769-.643-2.215 0-1.447.643-2.216.643-.77 1.791-.77t1.791.77q.643.769.643 2.216 0 1.446-.643 2.216-.643.769-1.791.769zm0-.792q.586 0 .982-.54t.396-1.653q0-1.114-.396-1.66-.396-.545-.982-.545-.597 0-.987.545-.39.546-.39 1.66 0 1.113.39 1.653t.987.54zm5.213-6.476q-.31 0-.39.178-.081.178-.081.407v.827h1.114l.011.735h-1.125v5.006h-.976l-.011-5.006h-.724v-.735h.724v-.7q0-.253.028-.529.029-.275.15-.499.12-.224.378-.367.259-.144.707-.144.23 0 .442.023t.476.057l-.057.839q-.173-.035-.356-.064-.184-.028-.31-.028zm3.1 0q-.31 0-.39.178-.08.178-.08.407v.827h1.113l.011.735h-1.125v5.006h-.976l-.011-5.006h-.724v-.735h.724v-.7q0-.253.028-.529.03-.275.15-.499.12-.224.379-.367.258-.144.706-.144.23 0 .442.023t.476.057l-.057.839q-.172-.035-.356-.064-.184-.028-.31-.028zm3.823 7.153v-7.44h2.595q.253 0 .615.04.361.04.7.23.339.189.58.562.24.373.24 1.05 0 .207-.045.454-.046.247-.172.483-.127.235-.356.436-.23.2-.597.304v.103q.723.161 1.056.666.333.506.333 1.114 0 .69-.304 1.148-.304.46-.821.655-.333.126-.626.16-.293.035-.729.035h-2.469zm2.423-3.318h-1.412v2.445h1.424q.631 0 1.044-.27.414-.27.414-.981 0-.38-.11-.614-.108-.236-.304-.362-.195-.126-.465-.172-.27-.046-.591-.046zm-1.412-3.25v2.389h1.366q.689 0 .993-.345.305-.344.305-.895 0-.437-.161-.666-.16-.23-.38-.34-.217-.108-.453-.125-.235-.018-.396-.018h-1.274zm6.43-1.355v7.923h-1v-7.923h1zm2.422 3.881h-.93q-.057-.803.477-1.309.534-.505 1.567-.505 1.08 0 1.504.546.425.545.425 1.521v3.789h-.976v-.092q0-.115.063-.43.063-.316.12-.615h-.103q-.183.528-.556.89-.374.362-1.12.362-.448 0-.763-.138-.316-.138-.523-.367-.207-.23-.304-.523-.098-.293-.098-.603 0-.711.316-1.113t.804-.609q.488-.207 1.068-.281.58-.075 1.108-.12v-.219q0-1.24-1.068-1.24-.563 0-.833.287t-.178.77zm.827 3.422q.551 0 .878-.402.328-.402.374-1.022.034-.516 0-1.045-.724.058-1.177.178-.454.12-.718.305-.264.183-.362.419-.097.235-.097.522 0 .482.31.764.31.281.792.281zm6.866-1.596l.953.011q.023 1.034-.516 1.677-.54.643-1.574.643-.642 0-1.102-.218-.459-.218-.752-.609-.293-.39-.43-.93-.138-.54-.138-1.183 0-.608.138-1.153.137-.546.43-.965.293-.42.752-.666.46-.247 1.102-.247.976 0 1.55.592.575.59.529 1.67l-.965-.011q.012-.735-.293-1.097-.304-.362-.82-.362-.666 0-1.022.575-.356.574-.356 1.619 0 1.113.373 1.664.373.552 1.027.552.207 0 .414-.075.206-.075.367-.253t.259-.476q.097-.299.074-.758zm2.17 2.216v-7.923h.976v3.422q0 .333-.017.597-.017.264-.052.488-.034.224-.069.425-.034.2-.068.42h.091q.023-.07.058-.133.034-.063.057-.12.092-.207.195-.374.104-.166.247-.356.144-.19.339-.43l.482-.597.919-1.16h1.228l-2.066 2.377 2.09 3.364h-1.206L55.4 19.639l-.643.7v2.021h-.976zm11.574-.77h.792V23.9h-.826V22.36h-3.847v1.539h-.827V21.59h.104q.413 0 .626-.356.212-.356.338-.988.035-.172.063-.557.03-.384.046-.878.018-.494.035-1.068.017-.574.029-1.125h3.467v4.972zm-3.594 0h2.641v-4.075h-1.71q-.035.85-.075 1.538-.04.69-.075.976-.138 1.114-.78 1.481v.08zm7.383.885q-1.148 0-1.791-.77-.643-.769-.643-2.215 0-1.447.643-2.216.643-.77 1.791-.77t1.791.77q.643.769.643 2.216 0 1.446-.643 2.216-.643.769-1.79.769zm0-.792q.586 0 .982-.54t.396-1.653q0-1.114-.396-1.66-.396-.545-.982-.545-.597 0-.987.545-.39.546-.39 1.66 0 1.113.39 1.653t.987.54zm5.96-4.432q-.024-.138-.035-.265-.012-.126-.012-.24 0-.483.167-.85.166-.368.47-.615.305-.246.718-.367.413-.12.896-.12.459 0 .855.114.396.115.689.35.293.236.46.603.166.368.166.873 0 .689-.333 1.102-.333.413-.919.632v.126q.597.241.925.712.327.47.327 1.16 0 .54-.184.918-.184.379-.505.626-.322.247-.74.361-.42.115-.902.115-1.08 0-1.642-.482-.563-.482-.563-1.458 0-.207.035-.448h1.022q-.035.23-.035.425 0 .62.362.878.362.259.89.259.505 0 .867-.31.361-.31.361-.988 0-.344-.103-.591t-.247-.408q-.143-.16-.31-.235-.166-.075-.281-.075h-.758v-.999h.758q.115 0 .281-.069.167-.069.31-.212.144-.144.247-.379.103-.235.103-.568 0-.345-.097-.574-.098-.23-.259-.368-.16-.138-.384-.2-.224-.064-.477-.064-.493 0-.832.264-.339.264-.339.884 0 .253.046.483h-.999zm7.899 5.235q-.551 0-.993-.27-.442-.27-.752-.769-.31-.5-.471-1.205-.161-.707-.161-1.59 0-.885.16-1.59.161-.707.472-1.207.31-.499.757-.769.448-.27 1-.27.55 0 .987.27.436.27.74.77.305.499.465 1.205.161.706.161 1.59.012.884-.15 1.59-.16.707-.47 1.206-.31.5-.752.77t-.993.27zm-.012-.85q.62 0 .988-.78.367-.78.356-2.205 0-1.4-.362-2.187-.362-.786-.982-.786t-.981.786q-.362.787-.362 2.187 0 1.424.362 2.205.361.78.981.78zm6.097-5.017h.953v2.205q0 .31-.011.654-.012.344-.035.677-.023.333-.057.626-.035.293-.092.488l.103.046q.08-.184.155-.384.075-.201.184-.448.11-.247.264-.569.155-.321.396-.746l1.447-2.549h.953v5.741h-.953l.011-2.388q.012-.62.058-1.189.046-.568.138-1.004l-.092-.023q-.08.183-.155.373t-.19.442q-.114.253-.281.58-.166.327-.43.786l-1.378 2.423h-.988v-5.741zm6.752 5.741h-.953v-5.741h.953v2.365h.964q.08-.746.402-1.355.321-.608.93-.907.23-.114.465-.166.235-.052.465-.052.23 0 .465.04.235.04.465.155.402.196.746.603.345.408.506 1.005.068.264.109.557.04.293.04.626 0 .332-.04.625t-.11.557q-.16.597-.505 1.005-.344.407-.746.603-.23.114-.465.155-.235.04-.465.04-.23 0-.465-.04-.235-.04-.465-.155-.678-.322-.982-.96-.304-.636-.361-1.429h-.953v2.469zm3.226-.677q.551 0 .924-.54t.373-1.653q0-1.103-.373-1.654-.373-.551-.924-.551-.563 0-.93.551-.368.551-.368 1.654 0 1.113.368 1.653.367.54.93.54zm4.398.677h-.976v-5.741h.976v2.365h2.41V16.62h.977v5.741h-.976v-2.492h-2.411v2.492zm5.557-3.996q0 .517.384.775.385.259 1.005.259h.861v-2.021h-.987q-.574 0-.919.224-.344.224-.344.763zm-.035 3.996h-1.16q.081-.08.156-.264.074-.184.149-.42l.15-.476q.074-.24.143-.436.16-.425.436-.649.276-.224.758-.247v-.16q-.448 0-.746-.12-.299-.121-.483-.317-.183-.195-.258-.447-.075-.253-.075-.506 0-.585.276-.97.275-.384.712-.557.149-.057.293-.092.143-.034.31-.051.166-.017.378-.023.213-.006.511-.006h1.677v5.741h-.942v-2.147h-.884q-.218 0-.379.017-.16.017-.275.086-.115.07-.196.201-.08.132-.149.362-.092.31-.184.717-.091.408-.218.764z" fill="#fff"/></svg>