<svg width="378.145" height="24" viewBox="0 0 378.145 24" xmlns="http://www.w3.org/2000/svg"><path d="M.364 18.15L4.328 5.046h2.305l3.923 13.104h-1.9l-.87-3.013H3.033l-.87 3.013H.365zM4.57 9.859l-1.072 3.66h3.823L6.188 9.535q-.182-.606-.283-1.041-.101-.435-.162-.769-.06-.333-.1-.596-.041-.263-.102-.526h-.202q-.101.586-.293 1.466-.193.88-.476 1.79zm12.76 8.513q-1.455 0-2.487-.586-1.031-.586-1.688-1.537-.657-.95-.96-2.164-.304-1.213-.304-2.467 0-1.294.323-2.518.324-1.223 1.001-2.163.678-.94 1.71-1.507 1.03-.566 2.446-.566.526 0 1.052.07.525.071 1.092.354.89.445 1.506 1.143.617.698 1.001 1.537.385.84.556 1.78.172.94.172 1.87 0 1.294-.313 2.508-.314 1.213-.98 2.153-.668.94-1.69 1.517-1.02.576-2.436.576zm-.02-1.577q1.558 0 2.528-1.365.971-1.365.971-3.812 0-1.213-.263-2.164-.263-.95-.728-1.617-.465-.668-1.102-1.022t-1.406-.354q-1.577 0-2.537 1.365-.961 1.365-.961 3.792 0 2.447.96 3.812.961 1.365 2.538 1.365zm15.552.506l-1.638-4.348 1.638-4.429h1.314l-1.638 4.429 1.638 4.348h-1.314zm-4.47-4.348l1.638-4.429h1.315l-1.638 4.429 1.638 4.348H30.03l-1.638-4.348zm6.997-7.907h9.626v1.577h-3.923V18.15h-1.78V6.623H35.39V5.046zM45.4 8.039h1.679v3.882q0 .546-.02 1.153t-.06 1.193q-.041.587-.102 1.102-.06.516-.162.86l.182.08q.142-.323.273-.677.132-.354.324-.788.192-.435.465-1.001.273-.567.698-1.315l2.548-4.49h1.678V18.15h-1.678l.02-4.206q.02-1.092.101-2.093.08-1.001.243-1.77l-.162-.04q-.142.323-.273.657-.132.334-.334.779-.202.444-.495 1.02-.293.577-.759 1.386L47.14 18.15h-1.74V8.039zM57.332 18.15h-1.72V8.039h1.72v4.166h4.247V8.039h1.718V18.15h-1.718v-4.388H57.33v4.388zM67.665 8.039v3.74h1.233q.506 0 .88.011.374.01.657.04.283.03.526.081.242.05.526.152.788.283 1.284 1.021.495.738.495 1.83 0 .425-.162.991-.161.567-.586 1.062-.425.495-1.163.84-.738.343-1.91.343h-3.439V8.039h1.659zm3.842 6.875q0-.89-.546-1.344-.546-.455-1.557-.455h-1.74v3.6h1.639q.93 0 1.567-.425.637-.425.637-1.376zm5.52 3.236H75.31V8.039h1.719v4.388h.93q.647 0 1-.283.355-.283.597-.93.142-.385.283-.85.142-.465.284-.9.141-.434.293-.808.152-.375.334-.617h1.94q-.302.303-.515.788-.212.486-.354.89-.222.627-.374 1.062-.151.435-.333.799-.304.606-.718.9-.415.293-1.062.434v.182q.768.142 1.163.465.394.324.657 1.012.101.283.273.798.172.516.374 1.022.223.525.425.95.202.425.546.809h-2.022q-.162-.202-.304-.536-.141-.334-.273-.738-.131-.404-.263-.85-.131-.444-.273-.89-.222-.687-.566-1.07-.344-.385-1.112-.385h-.93v4.469zm10.8.202q-2.023 0-3.155-1.355-1.133-1.355-1.133-3.903t1.133-3.903q1.132-1.354 3.154-1.354 2.023 0 3.155 1.354 1.133 1.355 1.133 3.903t-1.133 3.903q-1.132 1.355-3.155 1.355zm0-1.395q1.03 0 1.728-.95.698-.951.698-2.913 0-1.961-.698-2.922-.697-.96-1.729-.96-1.051 0-1.739.96-.687.96-.687 2.922 0 1.962.687 2.912.688.95 1.74.95zm11.486 4.793v-1.638q0-1.598.1-2.62.102-1.02.203-1.566l-.182-.02q-.283 1.172-.89 1.81-.606.636-1.678.636-.809 0-1.406-.435-.596-.434-1-1.162-.405-.728-.607-1.679-.203-.95-.203-1.982 0-1.051.203-1.992.202-.94.606-1.648.405-.707 1.001-1.112.597-.404 1.406-.404 1.072 0 1.678.637.607.637.89 1.81l.182-.02q-.101-.547-.202-1.618-.101-1.072-.101-2.367V5.046h1.658V6.38q0 1.295-.101 2.367-.101 1.071-.202 1.617l.182.02q.283-1.172.89-1.81.606-.636 1.678-.636.789 0 1.395.404.607.405 1.011 1.112.405.708.607 1.648.202.94.202 1.992 0 1.032-.202 1.982t-.607 1.679q-.404.728-1.01 1.162-.607.435-1.396.435-1.072 0-1.679-.637-.606-.637-.89-1.81l-.181.02q.1.547.202 1.568.101 1.021.101 2.619v1.638h-1.658zm-1.962-4.834q.87 0 1.385-1 .516-1.002.516-2.822 0-1.78-.516-2.8-.515-1.022-1.385-1.022-.85 0-1.405 1.022-.556 1.02-.556 2.8 0 1.82.556 2.821.556 1.001 1.405 1.001zm5.561 0q.85 0 1.416-1 .566-1.002.566-2.822 0-1.78-.566-2.8-.566-1.022-1.416-1.022-.849 0-1.365 1.022-.515 1.02-.515 2.8 0 1.82.515 2.821.516 1.001 1.365 1.001zm10.92 4.834v-1.638q0-1.598.102-2.62.1-1.02.202-1.566l-.182-.02q-.283 1.172-.89 1.81-.607.636-1.678.636-.81 0-1.406-.435-.596-.434-1-1.162-.405-.728-.608-1.679-.202-.95-.202-1.982 0-1.051.202-1.992.203-.94.607-1.648.405-.707 1.001-1.112.597-.404 1.406-.404 1.071 0 1.678.637t.89 1.81l.182-.02q-.101-.547-.202-1.618-.101-1.072-.101-2.367V5.046h1.658V6.38q0 1.295-.101 2.367-.101 1.071-.203 1.617l.182.02q.284-1.172.89-1.81.607-.636 1.679-.636.788 0 1.395.404.607.405 1.011 1.112.405.708.607 1.648.202.94.202 1.992 0 1.032-.202 1.982t-.607 1.679q-.404.728-1.01 1.162-.608.435-1.396.435-1.072 0-1.679-.637-.606-.637-.89-1.81l-.182.02q.102.547.203 1.568.1 1.021.1 2.619v1.638h-1.657zm-1.961-4.834q.87 0 1.385-1 .516-1.002.516-2.822 0-1.78-.516-2.8-.515-1.022-1.385-1.022-.85 0-1.405 1.022-.557 1.02-.557 2.8 0 1.82.557 2.821.556 1.001 1.405 1.001zm5.561 0q.85 0 1.416-1 .566-1.002.566-2.822 0-1.78-.566-2.8-.566-1.022-1.416-1.022t-1.365 1.022q-.516 1.02-.516 2.8 0 1.82.516 2.821.516 1.001 1.365 1.001zm17.836-10.171h-5.965v3.033h2.042q.364 0 .89.02t1.173.182q.465.121.97.374.506.253.92.698.415.445.688 1.132.273.688.273 1.679 0 .768-.192 1.355-.192.586-.536 1.092-.465.687-1.112 1.061-.647.375-1.325.546-.677.172-1.294.203-.617.03-1 .03h-3.277V5.046h7.745v1.699zm-3.983 4.57h-1.982v5.237h1.86q.465 0 .9-.05t.779-.212q.687-.284 1.082-.89.394-.607.394-1.517 0-.91-.394-1.517-.395-.606-1.103-.849-.384-.142-.717-.172-.334-.03-.82-.03zm8.736-.283h-1.638q-.101-1.416.839-2.306.94-.89 2.76-.89 1.901 0 2.65.961.748.96.748 2.68v6.673h-1.72v-.162q0-.202.112-.758.111-.556.212-1.082h-.182q-.323.93-.98 1.567-.658.637-1.972.637-.789 0-1.345-.242-.556-.243-.92-.648-.364-.404-.536-.92-.172-.515-.172-1.061 0-1.254.556-1.962t1.416-1.072q.86-.364 1.88-.495 1.022-.132 1.952-.213v-.384q0-2.184-1.88-2.184-.992 0-1.467.506-.475.505-.313 1.355zm1.456 6.026q.97 0 1.547-.708.576-.708.657-1.8.06-.91 0-1.84-1.274.101-2.073.314-.799.212-1.264.535-.465.324-.637.739-.172.414-.172.92 0 .85.546 1.345t1.396.495zm8.331 1.092h-1.719V8.039h1.72v4.166h4.246V8.039h1.72V18.15h-1.72v-4.388h-4.247v4.388zm10.395 0h-1.72V8.039h1.72v4.388h.93q.647 0 1.001-.283.354-.283.597-.93.141-.385.283-.85.141-.465.283-.9.141-.434.293-.808.152-.375.334-.617h1.941q-.303.303-.516.788-.212.486-.353.89-.223.627-.375 1.062-.151.435-.333.799-.304.606-.718.9-.415.293-1.062.434v.182q.769.142 1.163.465.394.324.657 1.012.101.283.273.798.172.516.374 1.022.223.525.425.95.202.425.546.809h-2.022q-.162-.202-.304-.536-.141-.334-.273-.738-.131-.404-.263-.85-.131-.444-.273-.89-.222-.687-.566-1.07-.344-.385-1.112-.385h-.93v4.469zm8.211-.85l1.638-4.347-1.638-4.429H167.1l1.638 4.429L167.1 17.3h1.314zm4.468-4.347l-1.637-4.429h-1.314l1.637 4.429-1.637 4.348h1.314l1.637-4.348zm3.54 2.386q.464 0 .808.334.344.333.344 1.243 0 .546-.142 1.123-.141.576-.354 1.082-.212.505-.455.91-.242.404-.465.586l-.667-.182q.142-.202.303-.505.162-.304.294-.607.131-.303.222-.587.091-.283.091-.444-.465 0-.809-.375-.344-.374-.344-1.122 0-.708.354-1.082.354-.374.82-.374zm6.754 1.416q.262 0 .546-.01.283-.01.515-.132.233-.121.395-.384.161-.263.222-.789.06-.606.111-1.466.05-.86.091-1.84.04-.981.091-2.033.05-1.051.091-2.062h6.087V18.15h-1.678V9.535h-2.912q-.06.95-.111 1.952-.051 1-.102 1.9-.05.9-.1 1.608-.051.708-.092 1.072-.06.526-.222.94-.162.415-.506.698t-.92.435q-.576.152-1.486.152l-.02-1.537zm10.86-8.716h1.678v3.882q0 .546-.02 1.153t-.061 1.193q-.04.587-.101 1.102-.061.516-.162.86l.182.08q.141-.323.273-.677.131-.354.323-.788.192-.435.465-1.001.273-.567.698-1.315l2.548-4.49h1.679V18.15h-1.679l.02-4.206q.02-1.092.101-2.093t.243-1.77l-.162-.04q-.141.323-.273.657-.131.334-.333.779-.203.444-.496 1.02-.293.577-.758 1.386l-2.427 4.267h-1.739V8.039zm10.211 0h1.679v8.756h4.186V8.04h1.678v8.756h1.173v4.267h-1.355V18.15h-7.36V8.039zm16.32 6.734l1.678.02q-.04 1.699-1.051 2.629-1.011.93-2.79.93-1.093 0-1.892-.404-.798-.405-1.314-1.102-.516-.698-.758-1.648-.243-.95-.243-2.023 0-1.132.263-2.103.263-.97.788-1.688.526-.718 1.325-1.133.799-.414 1.87-.414.971 0 1.68.343.707.344 1.172.92.465.577.688 1.355.222.779.222 1.648 0 .263-.02.536t-.06.556h-6.169q.02 2.003.748 2.882.729.88 1.8.88.789 0 1.426-.485.637-.486.637-1.7zm-2.204-5.561q-1.092 0-1.699.798-.607.8-.688 2.093h4.53v-.182q0-1.354-.556-2.032-.556-.677-1.587-.677zm7.664 8.938h-1.719V8.039h1.72v4.166h4.246V8.039h1.719V18.15h-1.72v-4.388h-4.246v4.388zm9.646-2.872q-.06.526.111.87.172.344.486.556.313.212.738.293.425.081.89.081.99-.02 1.537-.435.546-.414.546-1.223 0-.87-.486-1.284-.485-.415-1.375-.415h-1.8v-1.436h1.659q.788 0 1.243-.404.455-.404.455-1.173 0-.85-.485-1.244t-1.517-.394q-.465 0-.85.091-.383.091-.646.314-.263.222-.384.626-.122.405-.061 1.032h-1.577q-.061-.91.192-1.537.252-.627.738-1.011.485-.384 1.163-.566.677-.182 1.445-.182.749 0 1.416.151.667.152 1.153.486.485.333.768.849.283.516.283 1.244 0 .849-.495 1.466-.496.616-1.385.718v.283q.546 0 .97.212.425.212.718.536.293.323.445.728.152.404.152.809 0 .829-.304 1.395-.303.566-.839.93-.536.364-1.254.526-.718.162-1.547.162-1.981.02-2.912-.718-.93-.738-.768-2.336h1.577zm8.049-7.24h1.678v3.883q0 .546-.02 1.153t-.06 1.193q-.041.587-.102 1.102-.06.516-.162.86l.182.08q.142-.323.273-.677.132-.354.324-.788.192-.435.465-1.001.273-.567.698-1.315l2.548-4.49h1.678V18.15h-1.678l.02-4.206q.02-1.092.101-2.093t.243-1.77l-.162-.04q-.141.323-.273.657-.131.334-.334.779-.202.444-.495 1.02-.293.577-.758 1.386l-2.427 4.267h-1.74V8.039zm11.324 3.075q0 .91.678 1.365.677.455 1.77.455h1.516v-3.56h-1.74q-1.01 0-1.617.395-.607.394-.607 1.345zm-.06 7.037h-2.043q.142-.142.273-.465.132-.324.263-.738.132-.415.263-.84.131-.424.253-.768.283-.748.768-1.143.486-.394 1.335-.434v-.283q-.789 0-1.315-.213-.525-.212-.849-.556-.323-.344-.455-.789-.131-.444-.131-.89 0-1.03.485-1.708.485-.678 1.254-.98.263-.102.516-.163.252-.06.546-.09.293-.031.667-.041.374-.01.9-.01h2.952V18.15h-1.658v-3.782h-1.557q-.384 0-.667.03-.284.031-.486.152-.202.122-.344.354-.141.233-.262.637-.162.546-.324 1.264t-.384 1.345zm24.934-8.069q-1.092 0-1.699-.606-.606-.607-.606-2.002 0-1.396.606-2.003.607-.606 1.7-.606 1.091 0 1.678.606.586.607.586 2.003 0 1.395-.586 2.002-.587.606-1.679.606zm0-.93q.587 0 .84-.404.252-.405.252-1.274 0-.87-.253-1.275-.252-.404-.839-.404-1.112 0-1.112 1.679 0 1.678 1.112 1.678zm-1.961 2.872V10.91h3.963v1.113h-3.963zm-2.75 3.822l.161-.081q-.324-.89-.465-1.71-.142-.818-.142-1.465V5.046h1.557V18.15h-1.395l-4.873-8.13q-.547-.93-.82-1.627-.273-.698-.535-1.406l-.122.06q.223.972.334 1.81.111.84.111 1.487v7.806h-1.557V5.046h1.598l4.65 7.866q.527.89.84 1.558.313.667.657 1.375zm10.414.748h6.39v1.557h-7.583v-1.921q1.355-.688 2.426-1.547 1.072-.86 1.82-1.8.749-.94 1.133-1.911.384-.97.384-1.921 0-.728-.172-1.234-.172-.505-.475-.809-.303-.303-.708-.445-.404-.141-.87-.141-.869 0-1.455.425-.587.424-.587 1.516 0 .465.122 1.032h-1.7q-.222-.506-.222-1.092 0-.81.314-1.466.313-.658.84-1.103.525-.445 1.243-.687.718-.243 1.547-.243.87 0 1.607.253.739.253 1.264.758.526.506.83 1.274.303.769.303 1.8 0 1.395-.657 2.619-.658 1.223-1.628 2.204-.971.98-2.103 1.689-1.133.708-2.063 1.092v.1zm13.488-6.957q.627 0 1.264.233.637.232 1.153.738t.85 1.294q.333.789.333 1.921 0 1.113-.334 1.962-.333.85-.9 1.405-.566.557-1.324.84-.759.283-1.588.283-.93 0-1.709-.324-.778-.323-1.334-1.051t-.87-1.891q-.313-1.163-.313-2.841 0-1.598.263-2.943t.829-2.325q.566-.981 1.456-1.527.89-.546 2.123-.546 1.598 0 2.498.89.9.89.778 2.285h-1.82q.04-.81-.425-1.244-.465-.435-1.193-.435-.849 0-1.405.506-.556.505-.89 1.274-.334.768-.475 1.658-.142.89-.142 1.658l.162.02q.485-.97 1.254-1.405.768-.435 1.76-.435zm-.505 7.16q.93 0 1.617-.678.688-.678.688-2.174 0-1.578-.688-2.265-.687-.688-1.597-.688-1.031 0-1.699.738-.667.738-.667 2.194 0 1.295.677 2.083.678.79 1.669.79zm9.848 1.354h-1.941q.182-2.204.667-3.964.485-1.759 1.173-3.154.688-1.396 1.527-2.488t1.729-1.941h-6.633V5.046h8.412V6.44q-.829.85-1.638 1.81-.809.96-1.496 2.295-.688 1.335-1.163 3.165-.475 1.83-.637 4.439zm7.543-8.999q-.04-.243-.06-.465-.02-.223-.02-.425 0-.85.292-1.496.294-.647.83-1.082.535-.435 1.263-.647.728-.213 1.578-.213.809 0 1.506.203.698.202 1.214.616.515.415.809 1.062.293.647.293 1.537 0 1.213-.587 1.941-.586.728-1.617 1.113v.222q1.051.425 1.627 1.254.577.829.577 2.042 0 .95-.324 1.618-.323.667-.89 1.102-.566.435-1.304.637-.738.202-1.587.202-1.901 0-2.892-.849-.991-.85-.991-2.568 0-.364.06-.789h1.8q-.06.405-.06.748 0 1.092.637 1.547.637.455 1.567.455.89 0 1.527-.546.637-.546.637-1.739 0-.606-.182-1.041-.182-.435-.435-.718t-.546-.415q-.293-.131-.495-.131h-1.335v-1.76h1.335q.202 0 .495-.12.293-.122.546-.375.253-.253.435-.667.182-.415.182-1.001 0-.607-.172-1.011-.172-.405-.455-.647-.283-.243-.678-.354-.394-.112-.839-.112-.87 0-1.466.466-.596.465-.596 1.557 0 .445.08.849h-1.759z" fill="#fff"/></svg>