<svg width="252.046" height="14" viewBox="0 0 252.046 14" xmlns="http://www.w3.org/2000/svg"><path d="M5.896 3.554h-3.7v1.882h1.267q.225 0 .552.013.326.012.727.113.289.075.602.232.314.156.571.433.257.276.427.702.17.427.17 1.041 0 .477-.12.84-.12.365-.332.678-.289.427-.69.659-.402.232-.822.339-.42.106-.803.125-.383.019-.621.019H1.09V2.5h4.805v1.054zM3.425 6.39h-1.23v3.249H3.35q.288 0 .558-.031.27-.032.483-.132.427-.176.671-.552.245-.377.245-.941 0-.565-.245-.941-.244-.376-.684-.527-.238-.088-.445-.107-.207-.018-.508-.018zm8.042 2.145l1.04.012q-.024 1.054-.651 1.631-.628.577-1.732.577-.677 0-1.173-.25-.495-.251-.815-.684-.32-.433-.47-1.023-.151-.59-.151-1.254 0-.703.163-1.305t.49-1.048q.325-.445.82-.702.496-.257 1.161-.257.603 0 1.042.213.439.213.727.57.289.358.427.841t.138 1.023q0 .163-.013.332-.012.17-.037.345H8.606q.013 1.242.464 1.788.452.546 1.117.546.49 0 .884-.301.396-.301.396-1.054zm-1.368-3.45q-.677 0-1.054.495-.376.496-.426 1.299h2.81v-.113q0-.84-.345-1.26-.345-.421-.985-.421zm7.34 3.124l1.04.012q.026 1.13-.564 1.832-.59.702-1.719.702-.702 0-1.204-.238t-.822-.665q-.32-.426-.47-1.016-.15-.59-.15-1.292 0-.665.15-1.261.15-.596.47-1.054.32-.458.822-.728.502-.27 1.204-.27 1.067 0 1.694.647.627.646.577 1.825l-1.054-.012q.013-.803-.32-1.198-.332-.396-.897-.396-.727 0-1.116.628-.39.627-.39 1.769 0 1.217.409 1.819.407.602 1.122.602.226 0 .452-.082.226-.081.402-.276.175-.194.282-.52.106-.326.081-.828zm3.311 2.421h-1.066V4.357h4.58v6.273h-1.067V5.223H20.75v5.407zm4.504-.866q.163 0 .339-.006.176-.006.32-.081.144-.076.245-.239.1-.163.138-.49.037-.375.069-.909.03-.533.056-1.141.025-.609.056-1.261.032-.653.057-1.28h3.776v6.273H29.27V5.286h-1.807q-.037.59-.069 1.21-.031.621-.062 1.18-.032.558-.063.997-.032.439-.057.665-.037.326-.138.583-.1.257-.313.433-.214.176-.571.27-.358.094-.922.094l-.013-.954zm7.703-3.55h-1.016q-.063-.878.52-1.43.584-.552 1.713-.552 1.18 0 1.644.596.464.596.464 1.662v4.14h-1.067v-.1q0-.126.07-.47l.131-.672h-.113q-.2.577-.608.972t-1.223.395q-.49 0-.835-.15t-.57-.402q-.226-.25-.333-.57-.107-.32-.107-.659 0-.778.345-1.217.345-.439.879-.665.533-.226 1.166-.307.634-.082 1.211-.132v-.238q0-1.355-1.167-1.355-.614 0-.91.313-.294.314-.194.841zm.904 3.739q.602 0 .96-.44.357-.439.407-1.116.038-.565 0-1.142-.79.063-1.286.195-.495.131-.784.332-.289.2-.395.458-.107.257-.107.57 0 .528.339.835.339.308.866.308zm6.486.677h-1.08V5.31H37.26v-.953h5.094v.954h-2.007v5.319zm4.052 0h-1.067V4.357H44.4v2.585h2.634V4.357H48.1v6.273h-1.067V7.908H44.4v2.722zm7.552.125q-1.254 0-1.957-.84-.702-.84-.702-2.421t.702-2.422q.703-.84 1.957-.84 1.255 0 1.957.84.703.84.703 2.422 0 1.58-.703 2.42-.702.841-1.957.841zm0-.865q.64 0 1.073-.59.433-.59.433-1.806 0-1.217-.433-1.813-.433-.596-1.073-.596-.652 0-1.079.596-.426.596-.426 1.813t.426 1.806q.427.59 1.08.59zm7.565-1.355l1.042.012q-.026 1.054-.653 1.631t-1.731.577q-.678 0-1.173-.25-.496-.251-.816-.684-.32-.433-.47-1.023-.15-.59-.15-1.254 0-.703.162-1.305.164-.602.49-1.048.326-.445.821-.702.496-.257 1.161-.257.602 0 1.041.213.44.213.728.57.288.358.426.841t.138 1.023q0 .163-.012.332-.013.17-.038.345h-3.826q.012 1.242.464 1.788t1.117.546q.489 0 .884-.301t.395-1.054zm-1.367-3.45q-.678 0-1.054.495-.376.496-.427 1.299h2.81v-.113q0-.84-.344-1.26-.345-.421-.985-.421zM66.642 10.755q-1.254 0-1.957-.84-.703-.84-.703-2.421t.703-2.422q.703-.84 1.957-.84 1.255 0 1.957.84.703.84.703 2.422 0 1.58-.703 2.42-.702.841-1.957.841zm0-.865q.64 0 1.073-.59.433-.59.433-1.806 0-1.217-.433-1.813-.433-.596-1.073-.596-.652 0-1.079.596-.426.596-.426 1.813t.426 1.806q.427.59 1.08.59zm8.882-3.827q.1.377.138.722.038.345.038.709 0 .69-.176 1.292-.188.652-.57 1.098-.383.445-.86.658-.263.126-.527.17-.263.043-.527.043-.263 0-.583-.037-.32-.038-.646-.2-.427-.214-.703-.547-.276-.332-.439-.79-.163-.458-.226-1.054-.062-.596-.062-1.336.025-.552.062-1.18.038-.627.239-1.222.2-.596.64-1.117.439-.52 1.267-.847.401-.15.721-.257.32-.107.59-.2.27-.095.52-.201.251-.107.502-.27l.113 1.003q-.15.151-.332.251-.182.1-.408.182-.226.082-.514.163-.289.082-.665.195-1.017.326-1.537 1.047-.52.722-.483 1.926h.188q.075-.502.27-.86.194-.357.476-.589.283-.232.615-.345.333-.113.696-.113.866 0 1.424.477.559.477.76 1.23zM73.053 9.89q.314 0 .583-.144.27-.145.47-.446.201-.3.32-.753.12-.451.12-1.053 0-1.205-.433-1.807-.433-.602-1.073-.602-.652 0-1.079.602-.426.602-.426 1.794 0 1.23.42 1.82.42.589 1.098.589zm7.49-1.681l1.04.012q.026 1.13-.564 1.832-.59.702-1.718.702-.703 0-1.205-.238-.502-.238-.821-.665-.32-.426-.471-1.016-.15-.59-.15-1.292 0-.665.15-1.261.15-.596.47-1.054.32-.458.822-.728.502-.27 1.205-.27 1.066 0 1.693.647.628.646.577 1.825l-1.053-.012q.012-.803-.32-1.198-.333-.396-.897-.396-.728 0-1.117.628-.389.627-.389 1.769 0 1.217.408 1.819.408.602 1.123.602.226 0 .451-.082.226-.081.402-.276.175-.194.282-.52.107-.326.082-.828zm1.68 1.555q.164 0 .34-.006.175-.006.32-.081.144-.076.244-.239.1-.163.138-.49.038-.375.069-.909.031-.533.056-1.141.026-.609.057-1.261.031-.653.056-1.28h3.777v6.273h-1.042V5.286h-1.806q-.038.59-.07 1.21-.03.621-.062 1.18-.031.558-.063.997-.031.439-.056.665-.038.326-.138.583-.1.257-.314.433-.213.176-.57.27-.358.094-.923.094l-.012-.954zm8.068.753l-2.07-6.16h1.129l.94 3.024q.164.502.258.84.094.339.15.571.057.232.088.389.031.157.057.32h.087q.025-.163.157-.747.132-.583.395-1.486l.84-2.91h1.117l-2.082 6.134-.715 2.333h-1.054l.703-2.308zm4.503-6.16q.088.15.182.383.094.232.176.502l.17.558q.087.288.188.527.138.376.338.558.201.182.565.195h.552V4.357h1.041V7.08h.464q.402 0 .621-.176.22-.176.37-.577.088-.239.182-.527.094-.289.176-.558.081-.27.17-.502.087-.232.187-.383h1.192q-.175.251-.276.49-.1.238-.2.464-.151.401-.27.74-.12.339-.22.564-.15.352-.351.502-.2.15-.527.214v.163q.339.075.552.276.213.2.351.564.1.276.245.703.144.426.345.878.088.2.17.37.08.17.244.345h-1.255q-.087-.125-.169-.332-.081-.207-.163-.458t-.163-.527q-.082-.276-.17-.552-.137-.427-.35-.665-.214-.239-.69-.239h-.465v2.773h-1.041V7.857H96.5q-.477 0-.69.239-.214.238-.352.665-.087.276-.169.552-.082.276-.163.527-.082.25-.163.458-.082.207-.17.332h-1.267q.163-.176.264-.37.1-.195.188-.395.188-.44.326-.853.138-.414.239-.678.138-.364.35-.564.214-.201.553-.276V7.33q-.326-.063-.527-.214-.2-.15-.351-.502-.126-.263-.258-.67-.131-.409-.345-.898-.062-.163-.15-.339-.088-.175-.226-.35h1.204zm7.478 0h1.04v2.409q0 .339-.012.715-.012.376-.037.74-.025.364-.063.684-.038.32-.1.533l.112.05q.088-.2.17-.42.081-.22.2-.49.12-.269.29-.62.169-.351.432-.816l1.58-2.785h1.042v6.273h-1.041l.012-2.61q.013-.677.063-1.298t.15-1.098l-.1-.025q-.088.201-.17.408-.08.207-.206.483t-.308.634q-.181.357-.47.859l-1.506 2.647h-1.078V4.357zm6.486 6.273V4.357h2.697q.351 0 .684.082.332.081.59.27.257.188.407.482.15.295.15.722 0 .213-.075.433t-.232.42q-.157.2-.401.351-.245.15-.584.226v.088q.427.025.722.17.295.144.47.35.176.208.257.452.082.245.082.47 0 .578-.301 1.004-.301.427-.903.615-.251.088-.527.113-.276.025-.615.025H108.758zm1.028-.828h1.48q.528 0 .866-.232.34-.232.34-.76 0-.263-.101-.444-.1-.182-.264-.295-.163-.113-.376-.17-.213-.056-.427-.056h-1.518v1.957zm0-2.747h1.293q.464 0 .815-.251.351-.251.351-.74 0-.477-.307-.69-.307-.214-.709-.214h-1.443v1.895zm6.072-.841h-1.016q-.062-.878.52-1.43.584-.552 1.713-.552 1.18 0 1.644.596.464.596.464 1.662v4.14h-1.066v-.1q0-.126.069-.47.069-.346.131-.672h-.113q-.2.577-.608.972t-1.223.395q-.49 0-.834-.15-.345-.15-.571-.402-.226-.25-.333-.57-.106-.32-.106-.659 0-.778.345-1.217.345-.439.878-.665.533-.226 1.167-.307.633-.082 1.21-.132v-.238q0-1.355-1.167-1.355-.614 0-.91.313-.294.314-.194.841zm.904 3.739q.602 0 .96-.44.357-.439.407-1.116.038-.565 0-1.142-.79.063-1.286.195-.495.131-.784.332-.288.2-.395.458-.107.257-.107.57 0 .528.34.835.338.308.865.308zm5.169.677h-1.067V4.357h1.067v2.585h2.634V4.357h1.066v6.273h-1.066V7.908h-2.634v2.722zm5.382-6.273h1.04v2.409q0 .339-.012.715-.012.376-.037.74-.025.364-.063.684-.038.32-.1.533l.112.05q.088-.2.17-.42.081-.22.2-.49.12-.269.29-.62.168-.351.432-.816l1.58-2.785h1.042v6.273h-1.041l.012-2.61q.013-.677.063-1.298t.15-1.098l-.1-.025q-.088.201-.17.408-.08.207-.206.483t-.308.634q-.182.357-.47.859l-1.506 2.647h-1.078V4.357zm9.798 4.178l1.04.012q-.024 1.054-.651 1.631-.628.577-1.732.577-.677 0-1.173-.25-.495-.251-.815-.684-.32-.433-.47-1.023-.151-.59-.151-1.254 0-.703.163-1.305t.49-1.048q.325-.445.82-.702.496-.257 1.161-.257.603 0 1.042.213.439.213.727.57.289.358.427.841t.138 1.023q0 .163-.013.332-.012.17-.037.345h-3.827q.013 1.242.464 1.788.452.546 1.117.546.49 0 .884-.301.396-.301.396-1.054zm-1.368-3.45q-.677 0-1.054.495-.376.496-.426 1.299h2.81v-.113q0-.84-.345-1.26-.345-.421-.985-.421zM143.007 10.63h-1.066V4.357h1.066v2.585h2.635V4.357h1.066v6.273h-1.066V7.908h-2.635v2.722zM149.355 6.214h-1.016q-.063-.878.52-1.43.584-.552 1.713-.552 1.18 0 1.644.596.464.596.464 1.662v4.14h-1.067v-.1q0-.126.07-.47l.131-.672h-.113q-.2.577-.608.972t-1.223.395q-.49 0-.835-.15t-.57-.402q-.226-.25-.333-.57-.107-.32-.107-.659 0-.778.345-1.217.345-.439.879-.665.533-.226 1.166-.307.634-.082 1.21-.132v-.238q0-1.355-1.166-1.355-.615 0-.91.313-.294.314-.194.841zm.903 3.739q.603 0 .96-.44.358-.439.408-1.116.038-.565 0-1.142-.79.063-1.286.195-.496.131-.784.332-.289.2-.395.458-.107.257-.107.57 0 .528.339.835.339.308.865.308zm4.253.677V4.357h2.698q.351 0 .683.082.333.081.59.27.257.188.408.482.15.295.15.722 0 .213-.075.433t-.232.42q-.157.2-.401.351-.245.15-.584.226v.088q.427.025.722.17.294.144.47.35.176.208.257.452.082.245.082.47 0 .578-.301 1.004-.301.427-.904.615-.25.088-.527.113-.276.025-.614.025H154.51zm1.03-.828h1.48q.526 0 .865-.232.339-.232.339-.76 0-.263-.1-.444-.1-.182-.264-.295-.163-.113-.376-.17-.214-.056-.427-.056h-1.518v1.957zm0-2.747h1.291q.464 0 .816-.251.351-.251.351-.74 0-.477-.307-.69-.308-.214-.71-.214h-1.442v1.895zm8.63 1.154l1.042.012q.025 1.13-.565 1.832-.59.702-1.719.702-.702 0-1.204-.238t-.822-.665q-.32-.426-.47-1.016-.15-.59-.15-1.292 0-.665.15-1.261.15-.596.47-1.054.32-.458.822-.728.502-.27 1.204-.27 1.067 0 1.694.647.627.646.577 1.825l-1.054-.012q.013-.803-.32-1.198-.332-.396-.897-.396-.727 0-1.116.628-.389.627-.389 1.769 0 1.217.408 1.819.407.602 1.123.602.225 0 .451-.082.226-.081.402-.276.175-.194.282-.52.107-.326.081-.828zm5.96.326l1.04.012q-.024 1.054-.651 1.631-.628.577-1.732.577-.677 0-1.173-.25-.495-.251-.815-.684-.32-.433-.47-1.023-.151-.59-.151-1.254 0-.703.163-1.305t.49-1.048q.325-.445.82-.702.496-.257 1.161-.257.603 0 1.042.213.439.213.727.57.289.358.427.841t.138 1.023q0 .163-.013.332-.012.17-.037.345h-3.827q.013 1.242.464 1.788.452.546 1.117.546.49 0 .884-.301.396-.301.396-1.054zm-1.368-3.45q-.677 0-1.054.495-.376.496-.426 1.299h2.81v-.113q0-.84-.345-1.26-.345-.421-.985-.421zm4.73 5.545h-1.041V4.357h3.663v.979h-2.622v5.294zm7.527-.84h.866v2.521h-.903V10.63h-4.203v1.681h-.903V9.79h.112q.452 0 .684-.388.232-.39.37-1.08.038-.188.07-.608.03-.42.05-.96l.037-1.166q.019-.628.031-1.23h3.79V9.79zm-3.927 0h2.886V5.335h-1.87q-.037.928-.08 1.68-.045.754-.082 1.067-.151 1.217-.854 1.619v.087zm6.737-3.576h-1.016q-.063-.878.52-1.43.584-.552 1.713-.552 1.18 0 1.644.596.464.596.464 1.662v4.14h-1.066v-.1q0-.126.069-.47.069-.346.131-.672h-.113q-.2.577-.608.972t-1.223.395q-.49 0-.835-.15t-.57-.402q-.226-.25-.333-.57-.106-.32-.106-.659 0-.778.345-1.217.345-.439.878-.665.533-.226 1.167-.307.633-.082 1.21-.132v-.238q0-1.355-1.167-1.355-.614 0-.91.313-.294.314-.194.841zm.904 3.739q.602 0 .96-.44.357-.439.407-1.116.038-.565 0-1.142-.79.063-1.286.195-.495.131-.784.332-.288.2-.395.458-.107.257-.107.57 0 .528.339.835.339.308.866.308z" fill="#fff"/></svg>