<svg width="24.854" height="18" viewBox="0 0 24.854 18" xmlns="http://www.w3.org/2000/svg"><path d="M3.611 13.28q-.702 0-1.265-.343-.562-.343-.957-.98-.395-.635-.6-1.534-.204-.9-.204-2.025 0-1.126.204-2.025.205-.9.6-1.535.395-.636.965-.98.57-.343 1.272-.343.701 0 1.257.343.556.344.943.98.387.636.592 1.535.205.9.205 2.025.014 1.126-.19 2.025-.205.899-.6 1.535-.394.636-.957.98-.563.343-1.265.343zM3.596 12.2q.79 0 1.258-.994.468-.994.453-2.807 0-1.784-.46-2.785-.461-1.002-1.25-1.002-.79 0-1.25 1.002-.461 1.001-.461 2.785 0 1.813.46 2.807.461.994 1.25.994zm8.772-6.842v2.865h2.676v1.243h-2.676v2.72h-1.272v-2.72h-2.66V8.222h2.66V5.357h1.272z" fill="#fff"/></svg>