<svg width="100%" height="100%" viewBox="0 0 105 76" fill="none" xmlns="http://www.w3.org/2000/svg" preserveAspectRatio="none"><path d="M17.1051 64.8166V59.3932H20.339V57.4197H11.5165V59.3932H14.7503V64.8166H17.1051ZM23.5576 61.7242V57.4197H21.2814V64.8166H23.2908L27.2153 60.5121V64.8166H29.4916V57.4197H27.4822L23.5576 61.7242ZM37.1494 62.066V64.8166H39.4257V57.4197H37.1494V60.1235H33.4917V57.4197H31.2155V64.8166H33.4917V62.066H37.1494ZM45.765 64.8166C46.283 64.8166 46.754 64.77 47.1934 64.6456C48.3713 64.3193 49.1398 63.3713 49.1398 62.0815C49.1398 60.8539 48.4811 59.9993 47.4292 59.6107C46.9262 59.4243 46.33 59.4087 45.765 59.4087H43.4258V57.4197H41.1496V64.8166H45.765ZM45.3724 61.1492C45.6865 61.1492 45.9847 61.1492 46.2516 61.2425C46.6283 61.3667 46.8482 61.6775 46.8482 62.0505C46.8482 62.439 46.6283 62.7654 46.2673 62.9207C46.0161 63.0295 45.765 63.0295 45.3724 63.0295H43.4258V61.1492H45.3724ZM53.2214 62.0195L55.9371 64.8166H58.9668L55.1839 60.9627L58.8256 57.4197H55.9686L53.2214 60.2013H52.5933V57.4197H50.3177V64.8166H52.5933V62.0195H53.2214ZM63.6504 57.2177C60.5892 57.2177 58.7527 58.927 58.7527 61.1336C58.7527 63.3403 60.5892 65.0497 63.6504 65.0497C66.6964 65.0497 68.5329 63.3403 68.5329 61.1336C68.5329 58.927 66.6964 57.2177 63.6504 57.2177ZM63.6504 63.2471C62.1279 63.2471 61.1552 62.3457 61.1552 61.1336C61.1552 59.9216 62.1279 59.0358 63.6504 59.0358C65.1577 59.0358 66.1466 59.9216 66.1466 61.1336C66.1466 62.3457 65.1577 63.2471 63.6504 63.2471ZM76.114 57.0001H73.8374V57.746C70.9805 57.8081 69.269 59.0047 69.269 61.1181C69.269 63.2315 70.9805 64.3348 73.8374 64.397V65.1429H76.114V64.397C78.9863 64.3348 80.6978 63.2315 80.6978 61.1181C80.6978 59.0047 78.9863 57.8081 76.114 57.746V57.0001ZM73.8374 62.8119C72.2672 62.7498 71.5771 62.1126 71.5771 61.1181C71.5771 60.1235 72.2672 59.4087 73.8374 59.3466V62.8119ZM76.114 59.3466C77.6995 59.4087 78.3744 60.1235 78.3744 61.1181C78.3744 62.1126 77.6995 62.7498 76.114 62.8119V59.3466ZM88.2707 57.0001H85.9942V57.746C83.1372 57.8081 81.4266 59.0047 81.4266 61.1181C81.4266 63.2315 83.1372 64.3348 85.9942 64.397V65.1429H88.2707V64.397C91.1439 64.3348 92.8545 63.2315 92.8545 61.1181C92.8545 59.0047 91.1439 57.8081 88.2707 57.746V57.0001ZM85.9942 62.8119C84.4249 62.7498 83.7338 62.1126 83.7338 61.1181C83.7338 60.1235 84.4249 59.4087 85.9942 59.3466V62.8119ZM88.2707 59.3466C89.8562 59.4087 90.5311 60.1235 90.5311 61.1181C90.5311 62.1126 89.8562 62.7498 88.2707 62.8119V59.3466Z" fill="white" data-color-group="0"/><mask id="mask0_2201_60470" style="mask-type:alpha" maskUnits="userSpaceOnUse" x="24" y="0" width="56" height="55"><rect x="24.6781" width="54.8399" height="54.2857" fill="#C4C4C4" data-color-group="1"/></mask><g mask="url(#mask0_2201_60470)"><path d="M78.8061 25.2859L79.518 23.0406L77.1629 23.1133C76.9639 23.1133 75.5176 23.0729 74.1145 22.0704C74.219 22.0805 74.3236 22.0946 74.4303 22.0946C75.8746 22.0946 77.2716 21.2377 77.8317 20.0129L78.8451 17.7998C77.5753 17.816 76.4141 17.6584 76.4141 17.6584C76.4038 17.6562 75.4889 17.5411 74.4303 16.4759C73.6712 15.7121 72.7317 15.3077 71.7141 15.3077C71.269 15.3077 70.871 15.3865 70.5285 15.4937C70.5818 15.3138 70.633 15.1319 70.6619 14.9439C70.9859 12.8723 69.632 11.2918 69.632 11.2939L67.8616 9.13333L66.764 11.6718C66.7598 11.6799 66.483 12.2742 65.9866 12.5651C65.8368 11.8193 65.4696 10.9806 64.6838 10.1782C63.2027 8.66639 61.3995 8.44203 60.4558 8.44203C60.0187 8.44203 59.707 8.48855 59.631 8.50065L57.4934 8.91508C57.6165 8.44416 57.8791 7.62552 58.3591 6.88783L59.5388 5.07697L56.5703 5.41046L55.6246 3.43172L53.7947 4.36148L52.1022 2.71423L50.4138 4.36148L48.5777 3.43172L47.634 5.41046L44.6677 5.07697L45.8492 6.88783C46.3293 7.62552 46.5919 8.44203 46.713 8.91296L44.6737 8.51686L44.604 8.50477C44.5014 8.48855 44.1918 8.44203 43.7527 8.44203C42.809 8.44203 41.0058 8.66839 39.5287 10.1782C38.7409 10.9786 38.3737 11.8193 38.2219 12.5651C37.7296 12.2782 37.4546 11.692 37.4546 11.692L36.355 9.13931L34.556 11.3141C34.3364 11.595 33.2513 13.0806 33.5466 14.9481C33.5774 15.134 33.6266 15.3158 33.68 15.4958C33.3395 15.3887 32.9414 15.3099 32.4963 15.3099C31.4788 15.3099 30.5392 15.7141 29.7781 16.4781C28.7236 17.5391 27.8127 17.6584 27.821 17.6584C27.821 17.6584 26.8588 17.8281 25.3695 17.8018L26.3767 20.015C26.9369 21.2418 28.3358 22.0967 29.7781 22.0967C29.8869 22.0967 29.9914 22.0825 30.0981 22.0724C28.699 23.0749 27.2527 23.1153 27.0783 23.1173L24.6781 23.0406L25.4043 25.284C25.7695 26.4401 26.9901 28.3561 29.3289 28.5622C29.0744 29.6132 28.5103 30.7895 27.2712 31.2967L25.4844 32.0223L26.4588 33.6938C27.0086 34.5952 28.299 35.6502 30.137 35.6502C30.5351 35.6482 30.9186 35.6098 31.288 35.5331C31.3824 35.9454 31.5013 36.3577 31.6408 36.7659C32.1885 38.3706 31.7167 39.4903 31.7106 39.5025L30.8284 41.3235L32.7978 41.8348C32.8225 41.8429 33.4174 42.0025 34.1621 42.0025C34.5006 42.0025 34.8226 41.9682 35.1263 41.8975C35.356 41.8449 35.5756 41.7742 35.7869 41.6892C36.0412 42.14 36.351 42.5503 36.712 42.9181C37.9737 44.1934 39.7606 44.8402 42.0254 44.8402H42.0336L43.6501 44.82L40.3103 46.1862L42.846 47.3928C43.767 47.8355 44.8605 48.3589 45.9724 48.7591L45.6564 49.612L46.5304 50.0041C46.6083 50.0384 48.2884 50.7802 51.0826 50.9379C51.0826 50.9379 51.7575 50.9682 52.1288 50.9682C52.5001 50.9682 53.1668 50.9359 53.1668 50.9359C55.9426 50.7741 57.6103 50.0406 57.6884 50.0041L58.5642 49.61L58.2442 48.7551C59.389 48.3428 60.5213 47.799 61.4035 47.3746L63.8919 46.1842L60.5624 44.816L62.1851 44.8362C64.452 44.8362 66.2409 44.1894 67.5004 42.9121C67.8595 42.5463 68.1693 42.136 68.4258 41.6853C68.637 41.7702 68.8585 41.8409 69.0883 41.8934C69.3898 41.9641 69.712 41.9985 70.0505 41.9985C70.7828 41.9985 71.3839 41.8389 71.4003 41.8348L73.3779 41.3195L72.5163 39.5328C72.4958 39.4863 72.024 38.3686 72.5718 36.7619C72.7112 36.3516 72.8281 35.9393 72.9225 35.5289C73.2939 35.6058 73.6816 35.6462 74.0816 35.6462C76.4223 35.6462 77.5444 34.0233 77.7619 33.6716L78.7261 32.0183L76.9393 31.2947C75.6982 30.7874 75.1361 29.6091 74.8837 28.5602C77.1896 28.3662 78.4286 26.4502 78.8061 25.2859ZM46.8688 9.68706L46.8443 9.69318L46.8648 9.66686L46.8688 9.68706Z" fill="white" data-color-group="0"/><path fill-rule="evenodd" clip-rule="evenodd" d="M56.624 31.885H43.9685V24.6838C43.9685 23.9865 43.7613 23.2851 43.5172 22.6385H49.2203C49.7619 23.168 50.2932 23.4994 50.7978 23.6814C50.7343 23.938 50.6481 24.4656 50.8902 24.993C51.0892 25.4195 51.4482 25.7469 51.9692 25.9651C52.0267 26.4907 52.3652 27.2829 53.2966 27.6306C52.8883 28.0368 52.4903 28.4208 52.3303 28.5744L48.5432 28.5158C48.4572 28.4754 48.3114 28.3784 48.2459 28.2449C48.2414 28.2341 48.2358 28.2262 48.2303 28.2184C48.2256 28.2116 48.2209 28.2049 48.217 28.1966L48.8346 28.2956C48.8469 28.2976 48.8612 28.2976 48.8735 28.2976H48.8736C48.9946 28.2976 49.0972 28.2146 49.1177 28.0954C49.1382 27.96 49.0459 27.8368 48.9126 27.8165L48.1535 27.6993L48.9966 24.8294L48.1987 23.174L46.9185 24.508L46.8406 27.4912L45.981 27.3577C45.8477 27.3314 45.7205 27.4264 45.6979 27.5599C45.6774 27.6912 45.7677 27.8146 45.9031 27.8387L46.2641 27.8934C46.1369 27.9661 46.0508 28.0227 46.0405 28.0308L45.9686 28.0813L45.9481 28.1702C45.739 29.007 46.2107 29.8013 46.7237 30.157L46.7052 30.2621C46.6827 30.3914 46.7134 30.5168 46.7914 30.6218C46.8673 30.7289 46.98 30.7936 47.1093 30.8158C47.1359 30.8219 47.1646 30.8239 47.1893 30.8239C47.4109 30.8239 47.6037 30.6724 47.6571 30.452C47.8478 30.4742 48.0223 30.4783 48.1412 30.4783H48.2417L53.2083 31.3636L53.2924 31.307C53.6863 31.0362 55.1962 29.9528 55.6906 29.5931C55.826 29.7062 55.9778 29.8114 56.1624 29.8983C56.0004 30.4278 55.9921 31.2424 56.624 31.885ZM43.9678 32.3693H60.2421L60.2401 38.4024C60.2401 40.3992 59.0481 41.7958 57.1711 42.2505L57.4849 40.6377C57.5034 40.5428 57.5219 40.4315 57.5363 40.3386C57.6265 40.3749 57.7189 40.4054 57.8214 40.4234C57.9383 40.4458 58.047 40.4559 58.1455 40.4559C58.6255 40.4559 58.9045 40.2072 59.0912 39.9951L59.3333 39.7182L59.1363 39.415C59.135 39.4129 59.1312 39.4071 59.1254 39.398C59.053 39.2859 58.6559 38.6708 58.3466 38.2407C58.2809 38.1498 58.2173 38.0567 58.1538 37.9598L58.1501 37.9545C57.769 37.3934 57.2931 36.6926 56.3381 36.6926L56.252 36.6946C56.0961 36.7047 55.9607 36.735 55.8498 36.7754C55.5503 36.638 55.2386 36.5653 54.9165 36.5653C54.5206 36.5653 54.1862 36.6724 53.9646 36.7471C53.9445 36.7529 53.925 36.7588 53.9062 36.7645C53.8659 36.7769 53.8293 36.7881 53.7985 36.7936L52.0095 36.6198C51.987 36.6158 51.9131 36.5732 51.8249 36.4702V36.4601L52.2126 36.3065C52.1039 35.0353 50.8669 34.253 50.1755 33.9883C50.1448 33.8609 50.0832 33.7336 49.9745 33.6306L49.5908 33.2708L49.2524 33.669L49.0862 33.8732L46.5793 32.8585L48.2102 34.8756L47.566 35.8355C47.3302 36.0821 47.5907 36.3288 47.5907 36.3288L48.2554 36.7815L48.9446 36.5288C48.9582 36.5288 48.9717 36.531 48.9852 36.5332C48.9942 36.5347 49.0033 36.5361 49.0123 36.537C48.9928 36.5947 48.9707 36.747 48.95 36.8896C48.9337 37.0016 48.9183 37.1076 48.9057 37.1574L47.7097 36.9249L46.4522 37.6242C45.8058 38.0911 45.7178 38.8653 45.9577 39.3948L46.0972 39.6959L46.2963 40.1204L46.7373 39.9404C46.7434 39.9404 46.7495 39.9384 46.7537 39.9344C46.5958 40.4315 46.6613 40.9066 46.9425 41.2158L47.2091 41.5453L47.564 41.9879L47.9539 41.5756C48.0666 41.4623 48.44 41.052 48.5549 40.7004L48.6389 40.4315L48.4482 40.2254L48.4153 40.1891L48.6287 39.8414L50.19 40.2032L50.5407 40.282L50.7274 39.9788L50.83 39.8131C50.8485 39.7788 50.8545 39.7727 50.9264 39.7727C50.9817 39.7727 51.0371 39.7768 51.0966 39.7909C51.6855 39.9 52.2291 39.9546 52.7112 39.9546C53.181 39.9546 53.46 39.9364 53.7923 39.8273C53.7923 39.8273 54.6313 40.767 54.66 40.8015L54.1472 42.3638L54.1247 42.4567C53.1523 42.5355 52.6784 42.7458 52.106 43.3076C51.2751 42.4951 50.6864 42.4103 48.4523 42.4103C45.7793 42.4103 43.9678 40.8661 43.9678 38.4003V32.3693Z" fill="#FFDD2D" data-color-group="2"/><path fill-rule="evenodd" clip-rule="evenodd" d="M56.3817 9.1333C55.5385 8.46831 54.0123 7.84573 52.1044 7.84573C50.1985 7.84573 48.6763 8.46831 47.8312 9.1333C47.8312 9.1333 47.5808 7.64768 46.7254 6.33606L48.262 6.50778L49.0642 4.82426L50.6109 5.60847L52.1044 4.14917L53.6019 5.60847L55.1468 4.82426L55.9509 6.50778L57.4874 6.33606C56.632 7.64768 56.3817 9.1333 56.3817 9.1333ZM48.6189 7.14246L48.1922 7.09794L47.784 7.04942C47.9707 7.46173 48.1061 7.85583 48.2065 8.18134C49.2856 7.59119 50.6827 7.25558 52.1024 7.25558C53.528 7.25558 54.9272 7.59119 56.0021 8.18134C56.1006 7.85583 56.2381 7.46386 56.4248 7.04942L56.0186 7.09794L55.5919 7.14246L55.4114 6.76046L54.8678 5.62867L53.8769 6.13588L53.4912 6.32994L53.1835 6.03088L52.1064 4.9799L51.0315 6.03088L50.7238 6.32994L50.3381 6.13588L49.341 5.62867L48.8035 6.76046L48.6189 7.14246ZM49.1821 34.9885C49.0895 34.9804 49.0115 35.0511 49.0053 35.1401C48.9991 35.233 49.069 35.3118 49.1635 35.3138C49.2539 35.3219 49.3341 35.2532 49.3423 35.1623C49.3423 35.0733 49.2766 34.9905 49.1821 34.9885ZM60.2205 45.923L59.2829 45.5693L59.5414 44.6153L59.8266 43.5744C59.8266 43.5744 58.1648 44.4618 55.8241 45.1288C55.1594 45.3167 54.6568 45.4015 54.6568 45.4015V46.1089C54.6568 46.1089 53.4054 46.3232 52.1397 46.3232H52.1252H52.1069H52.0822H52.0679C50.8021 46.3232 49.5508 46.1089 49.5508 46.1089V45.4015C49.5508 45.4015 49.046 45.3167 48.3834 45.1288C46.0426 44.4618 44.383 43.5744 44.383 43.5744L44.664 44.6153L44.9287 45.5693L43.9892 45.923L42.9471 46.3069C43.0708 46.3657 43.1995 46.4273 43.3324 46.4909L43.3335 46.4914C44.4851 47.0423 45.9558 47.746 47.3147 48.1118L46.9577 49.0739C46.9577 49.0739 48.8799 49.9369 52.0822 49.945V49.947H52.0925H52.1069H52.1192H52.1274V49.945C55.3339 49.9369 57.254 49.0739 57.254 49.0739L56.8949 48.1118C58.2729 47.7408 59.7697 47.0223 60.9243 46.468L60.9244 46.468L60.9245 46.4679C61.0401 46.4125 61.1523 46.3586 61.2605 46.3069L60.2205 45.923ZM44.0589 46.3717L45.6016 45.8665L45.1461 44.4011C45.8252 44.7811 47.3495 45.351 48.2315 45.6158L47.4869 47.6308C46.1247 47.261 44.9902 46.8305 44.0589 46.3717ZM52.1069 49.4397C50.3159 49.4397 48.2706 49.0335 47.6695 48.8233L48.5844 46.3838C49.3435 46.6022 50.9232 46.8345 52.0699 46.8264H52.072H52.1069H52.1376H52.1417C53.2885 46.8345 54.864 46.6022 55.6272 46.3838L56.5401 48.8233C55.939 49.0355 53.8957 49.4397 52.1069 49.4397ZM56.7227 47.6308L55.9801 45.6158C56.8642 45.351 58.3843 44.7811 59.0655 44.4011L58.6121 45.8665L60.1527 46.3717C59.2192 46.8305 58.0909 47.261 56.7227 47.6308ZM74.4877 27.5583C76.9557 27.5583 77.7804 25.0845 77.8152 24.9794L78.0901 24.1083L77.1649 24.1366H77.1608C76.8347 24.1366 74.1123 24.0659 72.1819 21.6486L71.9993 21.4243L71.993 21.4164C70.7337 19.8388 69.5382 18.3409 67.404 17.6569C67.4655 17.6024 67.5538 17.5337 67.6748 17.4568C68.8093 16.7211 69.4698 15.8278 69.636 14.791C69.8781 13.2307 68.8688 11.9877 68.8236 11.9372L68.1364 11.1005L67.7077 12.0928L67.7073 12.0935C67.6739 12.1666 66.9514 13.7441 65.4387 13.7441H65.3258C65.294 13.7422 65.2628 13.7405 65.2319 13.7389C65.1613 13.7351 65.0928 13.7315 65.0243 13.7259C65.0777 13.0165 64.9463 11.919 63.937 10.8902C62.7246 9.65128 61.2352 9.46533 60.4557 9.46533C60.073 9.46533 59.8082 9.50798 59.7454 9.51809L59.7335 9.51996L58.6956 9.72199L59.3356 10.5527C59.8382 11.1934 60.2937 12.3758 59.754 12.9943C59.5908 13.1801 59.2635 13.3332 58.9398 13.4846L58.8864 13.5096C58.1868 13.8269 57.2328 14.2675 57.2328 15.3913C57.2328 16.1189 57.8053 16.8788 58.8432 17.5256C61.9164 19.4295 63.8118 21.4162 64.6304 23.609C65.8962 26.9823 64.2447 28.9064 62.6405 29.919L61.9204 30.3757L62.5503 30.9457L62.5504 30.9458C62.6353 31.0193 63.4064 31.6875 64.5442 31.7845C64.7597 31.7986 64.9668 31.8107 65.1597 31.8107C65.89 31.8107 66.5117 31.6976 67.0163 31.5459C66.8767 31.7865 66.7065 32.0311 66.4912 32.2776C65.5741 33.3245 64.4458 33.8015 62.8231 33.8258L62.2199 33.8359L62.1727 34.4321C62.1666 34.5513 62.1215 35.6569 63.1841 36.5968C63.3462 36.7422 63.5432 36.8615 63.7483 36.9606C63.0282 37.5992 62.2958 38.7108 62.1544 40.6167C62.0353 42.2073 61.6496 42.7955 61.6456 42.8015L60.9789 43.8039L62.1831 43.8201C64.173 43.8201 65.6972 43.2785 66.7537 42.2073C67.3773 41.5726 67.7344 40.8572 67.9456 40.2226C68.2923 40.5136 68.7396 40.7682 69.3221 40.9037C69.5437 40.9542 69.7858 40.9825 70.0463 40.9825C70.5792 40.9825 71.029 40.8772 71.1199 40.8559L71.1316 40.8532L71.9009 40.651L71.5603 39.9436L71.5593 39.9413C71.5218 39.8559 70.9012 38.446 71.5849 36.4431C71.8824 35.568 72.0341 34.7838 72.108 34.1734C72.5921 34.422 73.2405 34.6281 74.0795 34.6301C75.9297 34.6301 76.7743 33.3072 76.8561 33.179L76.8613 33.171L77.2367 32.5282L76.5413 32.2453C74.2724 31.3176 73.7698 28.8255 73.6692 27.4755C73.8743 27.5139 74.1083 27.5503 74.3728 27.5583H74.4877ZM76.2869 32.8415C76.2869 32.8415 75.6222 33.9794 74.098 33.9794H74.0795C72.2496 33.9693 71.511 32.8698 71.511 32.8698C71.511 32.8698 71.6177 34.3008 70.9572 36.2308C70.1632 38.5572 70.9633 40.2206 70.9633 40.2206C70.9633 40.2206 70.5366 40.3337 70.0443 40.3337C69.8556 40.3337 69.6586 40.3155 69.474 40.267C67.9456 39.9093 67.5641 38.5389 67.5641 38.5389C67.5641 38.5389 67.7055 43.1694 62.2261 43.1694H62.1831C62.1831 43.1694 62.6652 42.5226 62.8088 40.6611C63.0692 37.2253 65.4306 36.7544 65.4306 36.7544C65.4306 36.7544 64.1709 36.5988 63.6252 36.1157C62.7717 35.3537 62.8313 34.4725 62.8313 34.4725C64.7597 34.4463 66.0214 33.7995 66.9834 32.702C68.0257 31.5136 68.198 30.2343 68.198 30.2343C68.198 30.2343 67.1619 31.1599 65.1577 31.1599C64.9813 31.1599 64.7925 31.1518 64.5996 31.1336C63.6519 31.0589 62.9954 30.4646 62.9954 30.4646C65.0817 29.1469 66.5465 26.8469 65.248 23.3827C64.2079 20.6078 61.7091 18.5341 59.194 16.9718C58.3571 16.4564 57.8913 15.8844 57.8913 15.3913C57.8913 14.6807 58.5195 14.3917 59.1642 14.0951C59.572 13.9075 59.9864 13.7168 60.2526 13.4146C61.0444 12.5091 60.548 11.0399 59.8608 10.1566C59.8608 10.1566 60.0926 10.1101 60.4578 10.1101C61.1819 10.1101 62.4354 10.2899 63.4651 11.3409C64.8336 12.7355 64.2652 14.2534 64.2652 14.2534L64.6325 14.3241C64.8431 14.3687 65.0518 14.378 65.2676 14.3876L65.2951 14.3888C65.3197 14.3888 65.3443 14.3893 65.3689 14.3898C65.3935 14.3903 65.4181 14.3908 65.4427 14.3908C67.4307 14.3908 68.319 12.3434 68.319 12.3434C68.319 12.3434 70.432 14.9042 67.322 16.9091C66.7865 17.2527 66.5505 17.5699 66.6122 17.9095L66.6614 18.1319L66.8829 18.1703C69.039 18.7463 70.1764 20.1725 71.4899 21.8197L71.6711 22.0467C73.7861 24.6964 76.7793 24.7814 77.1485 24.7814H77.1875C77.1875 24.7814 76.5043 26.9055 74.4918 26.9055H74.4917C74.4589 26.9055 74.4303 26.9055 74.3955 26.9035C73.4703 26.8711 72.9963 26.5215 72.9963 26.5215C72.9963 26.5215 72.6333 31.3459 76.2869 32.8415ZM72.0794 19.6261C71.6096 19.0521 71.0741 18.4054 70.1531 17.9223L69.2053 17.4191L70.0833 16.8108L70.0981 16.8016C70.2218 16.7246 70.8631 16.3256 71.7142 16.3256C72.4466 16.3256 73.1256 16.6228 73.6878 17.1866C75.054 18.563 76.2807 18.6721 76.3259 18.6741L77.2798 18.7307L76.8859 19.5918C76.4942 20.4507 75.4601 21.0713 74.4303 21.0713C74.1677 21.0713 73.9092 21.0329 73.6651 20.9499C72.9879 20.7281 72.551 20.1983 72.0952 19.6453L72.0794 19.6261ZM73.218 17.6455C72.7112 17.13 72.1758 16.9765 71.7163 16.9765C71.0024 16.9765 70.4648 17.3483 70.4648 17.3483C71.5031 17.892 72.0948 18.6137 72.5919 19.2199C73.015 19.736 73.3695 20.1683 73.8724 20.3356C74.059 20.3982 74.2457 20.4265 74.4324 20.4265C75.2386 20.4265 76.0182 19.911 76.2869 19.325C76.2869 19.325 74.8077 19.2361 73.218 17.6455ZM70.5837 26.5102V26.5426C70.0299 22.1407 66.7844 18.9614 63.1738 17.0272C62.8395 16.8514 62.5318 16.7018 62.2323 16.5583C63.3318 16.726 65.1023 16.7462 66.4685 15.578C66.4685 15.578 64.378 17.0939 60.0946 15.7176C60.4383 15.9373 60.876 16.1831 61.3755 16.4637C62.5992 17.1511 64.1937 18.0468 65.6869 19.2767C70.9449 23.8282 67.1824 28.2686 67.1824 28.2686C69.0718 26.3264 69.1497 24.2446 68.5939 22.5449C69.5888 24.1759 70.2248 26.1565 70.1263 28.5981C69.9807 32.0966 68.0297 35.1222 65.9761 37.5536C64.9894 38.7339 64.7679 40.183 64.7679 40.183C64.7679 40.183 65.1658 38.9037 66.3085 37.5879C68.5097 35.0495 70.3909 32.4118 70.6371 28.6121C70.8648 29.3015 71.8024 31.2195 73.2897 31.9409L73.2891 31.9406C73.252 31.9177 71.4154 30.7851 70.5837 26.5102ZM42.5606 42.7967L42.5628 42.8006L43.2317 43.801L42.0253 43.8171C40.0354 43.8171 38.5132 43.2755 37.4548 42.2043C36.8331 41.5696 36.4741 40.8541 36.2648 40.2196C35.9222 40.5107 35.471 40.7652 34.8863 40.9007C34.6688 40.9512 34.4267 40.9795 34.1641 40.9795C33.6209 40.9795 33.1587 40.8692 33.0847 40.8515L33.0847 40.8515L33.079 40.8502L32.3075 40.6481L32.6481 39.9407L32.6493 39.938C32.6885 39.8489 33.3084 38.4402 32.6255 36.4401C32.328 35.565 32.1763 34.7808 32.1024 34.1704C31.6162 34.419 30.9679 34.6251 30.135 34.6272C28.256 34.6272 27.4117 33.2685 27.3514 33.1715L27.3492 33.1679L26.9737 32.5253L27.6671 32.2423C29.938 31.3126 30.4407 28.8205 30.5434 27.4724C30.3341 27.5128 30.1001 27.5473 29.8396 27.5554L29.7206 27.5594C27.2507 27.5594 26.428 25.0855 26.3952 24.9804L26.1122 24.1094L27.0414 24.1377C27.3676 24.1377 30.0961 24.0668 32.0244 21.6496L32.207 21.4252L32.2225 21.4058C33.4785 19.8325 34.6715 18.3382 36.7982 17.656C36.7367 17.6014 36.6505 17.5326 36.5274 17.4558C35.3929 16.7201 34.7324 15.8268 34.5683 14.79C34.328 13.2689 35.2878 12.0465 35.37 11.9418L35.3744 11.9362L36.0678 11.0994L36.4967 12.0918L36.4971 12.0926C36.5309 12.1666 37.2513 13.743 38.7677 13.743H38.8784L38.9673 13.7381L38.9674 13.7381L38.9675 13.7381C39.0386 13.7343 39.1083 13.7306 39.1779 13.7248C39.1267 13.0174 39.26 11.9201 40.2714 10.8893C41.4859 9.65038 42.9711 9.46443 43.7506 9.46443C44.1265 9.46443 44.3848 9.50515 44.4559 9.51635L44.4727 9.51892L45.515 9.72109L44.8708 10.5517C44.3702 11.1925 43.9127 12.3768 44.4544 12.9932C44.6176 13.1791 44.945 13.3322 45.2686 13.4836L45.322 13.5086C46.0216 13.824 46.9735 14.2666 46.9735 15.3903C46.9735 16.1179 46.4053 16.8777 45.3672 17.5245C42.29 19.4284 40.3964 21.4151 39.578 23.6081C38.3142 26.9793 39.9595 28.9034 41.5699 29.918L42.29 30.3748L41.6601 30.9448C41.5741 31.0195 40.8027 31.6864 39.6642 31.7835C39.4487 31.7976 39.2456 31.8098 39.0487 31.8098C38.3163 31.8098 37.6988 31.6965 37.1941 31.545C37.3337 31.7855 37.506 32.03 37.7193 32.2766C38.6363 33.3216 39.7667 33.7985 41.3853 33.8248L41.9925 33.8349L42.0335 34.4312C42.0397 34.5504 42.0849 35.6559 41.0243 36.5957C40.8622 36.7433 40.6694 36.8625 40.4601 36.9595C41.1822 37.5982 41.9126 38.7098 42.0562 40.6157C42.1741 42.1391 42.529 42.743 42.5606 42.7967ZM36.6403 38.5401C36.6403 38.5401 36.5007 43.1704 41.9802 43.1704H42.0192C42.0192 43.1704 41.5412 42.5236 41.3997 40.6622C41.1412 37.2263 38.7779 36.7554 38.7779 36.7554C38.7779 36.7554 40.0375 36.5977 40.5852 36.1167C41.4387 35.3548 41.3771 34.4736 41.3771 34.4736C39.4487 34.4473 38.187 33.8005 37.2188 32.7031C36.1827 31.5147 36.0104 30.2353 36.0104 30.2353C36.0104 30.2353 37.0464 31.161 39.0487 31.161C39.2293 31.161 39.4159 31.1529 39.6088 31.1347C40.5585 31.0599 41.215 30.4657 41.215 30.4657C39.1245 29.1459 37.6619 26.848 38.9584 23.3838C39.9965 20.6087 42.4951 18.5351 45.0123 16.9728C45.8493 16.4575 46.3149 15.8834 46.3149 15.3923C46.3149 14.6811 45.6866 14.3914 45.0424 14.0945C44.6358 13.9071 44.2229 13.7168 43.9578 13.4157C43.166 12.5102 43.6624 11.0428 44.3476 10.1576C44.3476 10.1576 44.1199 10.1112 43.7527 10.1112C43.0306 10.1112 41.7772 10.289 40.7473 11.342C39.3769 12.7366 39.9452 14.2544 39.9452 14.2544L39.578 14.3252C39.3804 14.3673 39.1795 14.3779 38.9767 14.3885H38.9767L38.9767 14.3885L38.9153 14.3918C38.8894 14.3918 38.8651 14.3923 38.841 14.3929H38.8409C38.8174 14.3934 38.794 14.3939 38.7697 14.3939C36.7777 14.3939 35.8935 12.3485 35.8935 12.3485C35.8935 12.3485 33.7805 14.9073 36.8906 16.9142C37.4259 17.2578 37.6599 17.575 37.5983 17.9146L37.549 18.137L37.3234 18.1754C35.1676 18.7542 34.0284 20.1825 32.7119 21.8331L32.5373 22.0518C30.4223 24.7015 27.4333 24.7865 27.0619 24.7865H27.0209C27.0209 24.7865 27.7019 26.9106 29.7166 26.9106H29.7167C29.7495 26.9106 29.7801 26.9106 29.813 26.9086C30.7403 26.8742 31.2141 26.5266 31.2141 26.5266C31.2141 26.5266 31.5731 31.349 27.9215 32.8426C27.9215 32.8426 28.5862 33.9805 30.1104 33.9805H30.129C31.9608 33.9704 32.6974 32.8709 32.6974 32.8709C32.6974 32.8709 32.5907 34.3017 33.2471 36.2319C34.041 38.5583 33.2451 40.2216 33.2451 40.2216C33.2451 40.2216 33.6698 40.3348 34.1621 40.3348C34.3528 40.3348 34.5478 40.3166 34.7304 40.2681C36.2587 39.9103 36.6403 38.5401 36.6403 38.5401ZM29.7771 21.075C30.0417 21.075 30.3002 21.0366 30.5442 20.9536C31.2229 20.7327 31.657 20.2062 32.1108 19.6556L32.1321 19.6298L32.1334 19.6281C32.605 19.0546 33.1362 18.4086 34.0563 17.9261L35.0042 17.4248L34.124 16.8165L34.1158 16.8112C34.0102 16.744 33.3628 16.3314 32.4973 16.3314C31.7629 16.3314 31.0818 16.6265 30.5217 17.1923C29.1554 18.5667 27.9307 18.6778 27.8855 18.68L26.9316 18.7345L27.3235 19.5975C27.7173 20.4524 28.7492 21.075 29.7771 21.075ZM30.9914 17.6492C31.5002 17.1337 32.0357 16.9802 32.4973 16.9802C33.207 16.9802 33.7445 17.352 33.7445 17.352C32.7097 17.8955 32.1182 18.6152 31.6209 19.2203C31.1954 19.7379 30.839 20.1716 30.3329 20.3393C30.1525 20.4019 29.9637 20.4302 29.7771 20.4302C28.9708 20.4302 28.1912 19.9169 27.9245 19.3287L27.9302 19.3281C28.0308 19.3184 29.4587 19.1806 30.9914 17.6492ZM35.6129 22.5468C34.616 24.1778 33.98 26.1585 34.0825 28.6001C34.2261 32.0986 36.177 35.1262 38.2265 37.5535C39.2174 38.7338 39.441 40.183 39.441 40.183C39.441 40.183 39.0388 38.9035 37.8962 37.5879C35.6949 35.0493 33.8138 32.4119 33.5656 28.6122C33.3379 29.3033 32.4024 31.2193 30.9171 31.9409C30.9171 31.9409 32.784 30.8313 33.6229 26.5082V26.5425C34.1789 22.1406 37.4224 18.9613 41.037 17.0271C41.3527 16.859 41.6516 16.715 41.9371 16.5774L41.9372 16.5773L41.9373 16.5773L41.9766 16.5583C40.877 16.7281 39.1065 16.7483 37.7403 15.5801C37.7403 15.5801 39.8308 17.0958 44.1122 15.7195C43.7678 15.9399 43.3289 16.1868 42.8277 16.4686C41.606 17.1555 40.0144 18.0504 38.5219 19.2787C33.2619 23.8302 37.0243 28.2706 37.0243 28.2706C35.1329 26.3282 35.0569 24.2465 35.6129 22.5468ZM50.8671 19.6942V20.5675C51.1728 20.2016 51.7636 20.2765 51.7636 20.2765V21.5358C51.7636 21.5358 51.7431 22.1544 51.5195 22.4232H52.1595H52.7976C52.5781 22.1564 52.5554 21.5358 52.5554 21.5358V20.2765C52.5554 20.2765 53.1463 20.2016 53.4499 20.5675V19.6942H52.1595H50.8671ZM50.9575 14.8895C50.903 14.8716 50.6771 14.7973 50.3178 14.516C49.6429 13.9985 49.6285 13.5235 49.6285 13.5215L51.1302 14.1441V14.9668L50.9701 14.8941C50.9691 14.8934 50.9649 14.892 50.9575 14.8895ZM53.8892 14.516C54.5682 13.9985 54.5806 13.5215 54.5806 13.5215L53.0789 14.1441V14.9668L53.2368 14.8941C53.2375 14.8937 53.2394 14.893 53.2423 14.8921C53.2439 14.8915 53.2458 14.8909 53.248 14.8902C53.3 14.8735 53.5253 14.8008 53.8892 14.516ZM52.1107 8.79839C54.4637 8.79839 56.5952 9.92008 56.5952 11.1671L56.55 11.4743L55.6105 16.7878L56.55 17.3274L58.9914 18.7321H58.9831C58.9831 18.7321 59.5329 19.0089 59.7832 19.1808C60.7187 19.8175 60.9136 20.7451 60.374 21.1291C60.2386 20.3712 59.6334 19.581 58.4969 19.581C57.6783 19.581 57.0568 19.9953 56.548 20.6219C56.4208 20.7795 56.2999 20.9473 56.1828 21.1291C56.0414 21.3575 55.8998 21.5596 55.7602 21.7517H62.0501C61.5865 22.6672 61.1474 23.6374 61.1474 24.6904V38.4016C61.1474 41.7202 58.5605 43.3047 55.7562 43.3047C55.5899 43.3047 55.4346 43.3041 55.2891 43.3036C53.5378 43.297 53.2052 43.2958 52.1066 44.3799C51.0008 43.2961 50.6684 43.2973 48.9123 43.3037C48.7691 43.3042 48.6163 43.3047 48.4529 43.3047C45.6507 43.3047 43.0596 41.7202 43.0596 38.4016V24.6904C43.0596 23.6374 42.6206 22.6672 42.159 21.7517H48.4468C48.3052 21.5576 48.1636 21.3575 48.0222 21.1291C47.9073 20.9473 47.7842 20.7795 47.655 20.6219C47.1502 19.9973 46.5267 19.581 45.7081 19.581C44.5716 19.581 43.9644 20.3732 43.831 21.1291C43.2915 20.7451 43.4884 19.8175 44.4177 19.1808C44.6721 19.0089 45.2219 18.7321 45.2219 18.7321H45.2136L47.655 17.3274L48.5985 16.7878L47.659 11.4743L47.6118 11.1671C47.6118 9.92008 49.7433 8.79839 52.0963 8.79839H52.1025H52.1087H52.1107ZM51.8399 12.889L48.537 11.7856L49.409 16.7373L51.8399 18.0005V12.889ZM50.7978 23.6858C50.2931 23.5039 49.7618 23.1744 49.2202 22.6429V22.647H43.5171C43.7613 23.2938 43.9684 23.9951 43.9684 24.6924V31.8895H56.626C55.992 31.2468 56.0024 30.4322 56.1623 29.9027C55.9777 29.8159 55.8259 29.7108 55.6905 29.5955C55.1961 29.9533 53.6882 31.0366 53.2923 31.3095L53.2083 31.364L48.2416 30.4808H48.1411C48.0222 30.4808 47.8478 30.4768 47.657 30.4546C47.6016 30.6748 47.4087 30.8263 47.1872 30.8263C47.1625 30.8263 47.1338 30.8243 47.1072 30.8204C46.9799 30.7982 46.865 30.7334 46.7913 30.6263C46.7133 30.5212 46.6846 30.396 46.7051 30.2665L46.7236 30.1615C46.2127 29.8058 45.7389 29.0115 45.948 28.1748L45.9685 28.0857L46.0424 28.0352C46.0527 28.0271 46.1368 27.9706 46.266 27.8978L45.905 27.8433C45.7696 27.819 45.6794 27.6957 45.6999 27.5643C45.7224 27.433 45.8496 27.3359 45.983 27.3623L46.8425 27.4956L46.9205 24.5125L48.2006 23.1786L48.9986 24.8338L48.1554 27.7017L48.9145 27.819C49.0479 27.8392 49.1402 27.9625 49.1196 28.098C49.0991 28.2192 48.9946 28.3 48.8755 28.3C48.8632 28.3 48.851 28.3 48.8365 28.298L48.2191 28.199C48.2227 28.2107 48.2283 28.219 48.234 28.2274C48.2381 28.2336 48.2423 28.2398 48.2458 28.2475C48.3114 28.3829 48.4571 28.4778 48.5432 28.5204L52.3281 28.579L52.3354 28.572C52.5019 28.4121 52.8943 28.0354 53.2965 27.6351C52.363 27.2854 52.0266 26.4952 51.9691 25.9697C51.4501 25.7514 51.0891 25.4239 50.8901 24.9995C50.646 24.4721 50.7321 23.9426 50.7978 23.6858ZM53.0954 30.8446C53.5631 30.5212 54.8555 29.5915 55.3582 29.2277C54.993 28.7022 54.9581 28.0797 55.0402 27.6431C54.8022 27.4916 54.6196 27.3197 54.474 27.1399C53.9341 27.7199 52.9379 28.6758 52.6679 28.9349C52.6311 28.9701 52.6078 28.9925 52.601 28.9993L52.5292 29.0721L48.7361 29.0115C48.7319 29.3813 48.6724 29.6965 48.613 29.927C48.6055 29.9563 48.5981 29.9846 48.5906 30.0134C48.5878 30.0242 48.585 30.0352 48.5822 30.0462L53.0954 30.8446ZM48.2355 28.9083C48.1021 28.8255 47.9093 28.678 47.8026 28.4576C47.6795 28.203 47.5052 28.0837 47.2487 28.0857C46.9164 28.0857 46.5615 28.2818 46.4076 28.3748C46.2845 29.0802 46.8138 29.7209 47.1687 29.8502C47.4887 29.9654 47.8806 29.9896 48.0796 29.9896L48.0804 29.9872C48.0884 29.9634 48.0984 29.9339 48.1082 29.8987C48.1267 29.8401 48.1431 29.7815 48.1554 29.7189C48.2108 29.4359 48.2313 29.1145 48.2355 28.9083ZM47.4087 24.7064L47.3328 27.5704L47.6631 27.6189L48.4714 24.8702L48.0611 24.0254L47.4087 24.7064ZM54.6381 42.4296C54.8432 42.4215 55.071 42.4175 55.3171 42.4175C55.3171 42.4175 55.906 40.7217 55.9408 40.6692C55.6105 40.5257 54.9253 40.168 54.6606 40.0043C54.7173 40.0877 54.8006 40.1751 54.8841 40.2628C55.0575 40.4447 55.2324 40.6283 55.1756 40.7824L54.6381 42.4296ZM56.6527 42.3488L57.0034 40.5459C57.0424 40.3479 57.0793 40.0851 57.0793 40.0811C57.0595 40.0612 57.0355 40.0381 57.0084 40.0121C56.8508 39.8602 56.5887 39.6077 56.4311 39.311C56.3016 39.0643 56.2771 38.8791 56.2495 38.6703C56.2247 38.4824 56.1974 38.2754 56.0886 37.9872C56.0886 37.9872 56.1603 37.8457 56.3224 37.8457C56.347 37.8457 56.3757 37.8477 56.4024 37.8558C56.6158 37.9159 56.7615 38.2726 56.9261 38.6753C57.1491 39.2212 57.4067 39.8517 57.9143 39.9437C58.0005 39.9597 58.0805 39.9659 58.1502 39.9659C58.4046 39.9659 58.5565 39.8607 58.7206 39.6688C58.7206 39.6688 58.2775 38.9816 57.9451 38.5188C57.8752 38.4224 57.8079 38.3229 57.7407 38.2237C57.384 37.6969 57.0332 37.1787 56.3409 37.1787C56.3204 37.1787 56.2977 37.1787 56.2772 37.1807C56.0064 37.1949 55.8403 37.3243 55.8403 37.3243C55.5079 37.1181 55.1961 37.0474 54.9171 37.0474C54.6017 37.0474 54.329 37.1353 54.119 37.203C53.9875 37.2454 53.8806 37.2799 53.8031 37.2799H53.7949L51.9609 37.1019C51.6737 37.0757 51.4481 36.7907 51.3661 36.6795C51.3456 36.6492 51.3352 36.631 51.3352 36.631C51.3352 36.5826 51.3352 36.5319 51.3312 36.4875C51.2695 35.0122 50.1085 34.3795 49.6941 34.3694C49.6941 34.3694 49.7413 34.0885 49.6304 33.9814L49.2264 34.4644L47.8991 33.8075L48.8468 34.8969L48.0447 35.7822C47.9421 35.8832 47.9565 36.0186 47.9975 36.0772L48.3442 36.3784L48.7833 36.1156C48.8058 36.0994 48.8468 36.0954 48.894 36.0954C48.9499 36.0954 49.019 36.1019 49.0933 36.1089C49.1799 36.117 49.2735 36.1257 49.3618 36.1257C49.5422 36.1257 49.6961 36.0893 49.7146 35.9236C49.6979 36.0886 49.6395 36.2903 49.5753 36.5121C49.4264 37.0264 49.2463 37.6486 49.4828 38.1711L49.7351 38.737L48.1144 38.5066L47.3555 39.7698C47.1195 40.1902 47.0825 40.6429 47.3083 40.8915L47.5934 41.2412C47.5934 41.2412 47.9913 40.8269 48.0796 40.552L47.9503 40.4125C47.8416 40.2954 47.8457 40.1882 47.9134 40.0629L48.3894 39.2868L50.3033 39.7314L50.4059 39.5616C50.5351 39.3474 50.7219 39.2848 50.927 39.2848C51.0111 39.2848 51.0973 39.2949 51.1875 39.309C51.5425 39.3777 52.1272 39.4707 52.7118 39.4707C53.3519 39.4707 53.9899 39.3595 54.3284 38.9836C54.6836 39.5023 55.2257 39.7972 55.655 40.0308C56.0637 40.2531 56.3702 40.4199 56.3162 40.6712L55.947 42.4053C56.1911 42.3952 56.4291 42.3791 56.6527 42.3488ZM47.2384 39.0483L47.1544 38.84C47.0928 38.7047 47.101 38.5572 47.2159 38.4784L47.9011 38.0114L49.0458 38.2277C49.0458 38.2277 48.8386 37.973 48.8592 37.6314L47.7677 37.4031L46.7379 38.0215C46.2947 38.3469 46.264 38.8785 46.4096 39.1937L46.5472 39.4888C46.5472 39.4888 47.1831 39.2302 47.2384 39.0483ZM57.4897 40.6368L57.1758 42.2498C59.0529 41.7949 60.2448 40.4004 60.2428 38.3996L60.2386 32.3706H43.9664V38.3996C43.9664 40.8653 45.7778 42.4094 48.4509 42.4094C50.6849 42.4094 51.2737 42.4942 52.1045 43.3067C52.677 42.7429 53.1508 42.5326 54.1231 42.4559L54.1458 42.3609L54.6586 40.8006C54.6299 40.7642 53.7908 39.8264 53.7908 39.8264C53.4564 39.9355 53.1774 39.9538 52.7097 39.9538C52.2276 39.9538 51.6839 39.8991 51.0952 39.79C51.0357 39.7779 50.9804 39.7718 50.925 39.7718C50.8531 39.7718 50.847 39.7779 50.8286 39.8122L50.7259 39.9779L50.5393 40.2811L50.1884 40.2023L48.6274 39.8405L48.4139 40.1882L48.4448 40.2245L48.6355 40.4307L48.5515 40.6996C48.4366 41.0513 48.0652 41.4614 47.9503 41.5747L47.5606 41.987L47.2056 41.5444L46.9389 41.2129C46.6559 40.9016 46.5922 40.4287 46.7501 39.9316C46.7482 39.9335 46.7456 39.935 46.7428 39.9363C46.74 39.9375 46.7369 39.9385 46.7338 39.9395L46.2947 40.1195L46.0958 39.695L45.9563 39.3939C45.7162 38.8644 45.8044 38.0903 46.4506 37.6235L47.7082 36.924L48.9042 37.1565C48.9173 37.105 48.9334 36.9933 48.95 36.8772C48.9701 36.7379 48.991 36.5922 49.0089 36.5361C49 36.5353 48.9914 36.5338 48.9827 36.5324C48.9694 36.5302 48.956 36.528 48.9412 36.528L48.2518 36.7806L47.5873 36.3299C47.5873 36.3299 47.3266 36.0833 47.5626 35.8368L48.2068 34.8767L46.5759 32.8596L49.0828 33.8743L49.2489 33.6701L49.5874 33.2699L49.9731 33.6297C50.0818 33.7327 50.1434 33.86 50.1741 33.9874C50.8655 34.2521 52.1045 35.0344 52.2132 36.3056L51.8255 36.4592V36.4673C51.9137 36.5725 51.9876 36.6149 52.0101 36.6189L53.8011 36.7927C53.832 36.7872 53.8685 36.776 53.9089 36.7637C53.9276 36.7579 53.9471 36.752 53.9672 36.7462C54.1888 36.6715 54.5232 36.5644 54.9191 36.5644C55.2413 36.5644 55.551 36.6351 55.8526 36.7745C55.9613 36.7341 56.0967 36.7038 56.2547 36.6937L56.3409 36.6917C57.298 36.6917 57.776 37.3957 58.1573 37.9574L58.1584 37.9589C58.222 38.058 58.2856 38.1489 58.3513 38.2398C58.6877 38.7047 59.1226 39.3838 59.1411 39.4141L59.3381 39.7173L59.0959 39.9942C58.9093 40.2063 58.6303 40.455 58.1502 40.455C58.0517 40.455 57.943 40.4449 57.8261 40.4227C57.7235 40.4045 57.6291 40.3742 57.5409 40.3378C57.5309 40.4026 57.5179 40.4764 57.5054 40.5473C57.5 40.578 57.4946 40.6081 57.4897 40.6368ZM60.2386 24.6884C60.2386 23.9911 60.4459 23.2897 60.694 22.6429V22.6409H54.9971C54.1231 23.4938 53.2842 23.8111 52.5354 23.8839C52.4 23.898 52.2626 23.9061 52.123 23.9061H52.1128H52.1045C51.9651 23.9061 51.8255 23.898 51.6901 23.8839C51.5589 23.8738 51.4214 23.8515 51.284 23.8212C51.2347 24.0133 51.1711 24.4135 51.3496 24.7954C51.5075 25.1411 51.8297 25.3977 52.2994 25.5695L52.4574 25.6301L52.4595 25.798C52.4595 25.8485 52.4964 26.9379 53.6986 27.2389C53.8935 27.0409 54.0719 26.859 54.2052 26.7094C53.959 26.1394 54.0883 25.5574 54.4453 25.2724C54.431 25.331 54.2729 26.7599 55.434 27.2894L55.6248 27.3783L55.5674 27.5805C55.5469 27.6391 55.1612 29.0216 56.5665 29.5349L56.8147 29.6278L56.7039 29.8664C56.6772 29.9189 56.1274 31.1721 57.426 31.8834H60.2407V29.6805C59.2395 29.5591 58.8149 28.7669 58.7062 28.2051C58.2405 28.1263 57.8814 27.9281 57.6333 27.6047C57.1065 26.9217 57.4538 26.2902 57.5397 26.1341C57.5501 26.1151 57.5567 26.1032 57.5574 26.099C57.5552 26.1051 57.5574 26.8529 58.0252 27.3137C58.257 27.536 58.5318 27.7098 58.9462 27.7482L59.1513 27.7665L59.1698 27.9726C59.174 28.017 59.2867 29.0297 60.2407 29.1873L60.2386 24.6884ZM57.4198 18.7321L56.308 18.0954L55.1632 17.4508L52.1107 19.0878L52.1025 19.0818L52.0963 19.0878L49.0438 17.4508L47.9011 18.0954L46.7892 18.7321H46.7768L46.4938 18.8917C47.1235 19.0616 47.6016 19.3688 48.0057 19.7749C48.014 19.7822 48.0211 19.7899 48.028 19.7974C48.0365 19.8067 48.0448 19.8157 48.0549 19.8235C48.1431 19.9185 48.2313 20.0215 48.3175 20.1247C48.338 20.1488 48.3565 20.1712 48.377 20.1995C48.4571 20.3025 48.535 20.4116 48.613 20.5227C48.6221 20.5352 48.6312 20.5488 48.6407 20.5629C48.6482 20.5742 48.656 20.5859 48.6642 20.5976C48.7566 20.735 48.8427 20.8764 48.9289 21.022C49.7208 22.366 50.9845 23.1685 52.1066 23.1704C53.2308 23.1685 54.4945 22.366 55.2864 21.022C55.3747 20.8724 55.4627 20.7269 55.5551 20.5915C55.5695 20.5734 55.5838 20.5532 55.5961 20.5328C55.6742 20.4157 55.7541 20.3045 55.8403 20.1954C55.8506 20.1829 55.8603 20.1705 55.8697 20.1584C55.8771 20.1489 55.8844 20.1397 55.8916 20.1308C55.9777 20.0236 56.0701 19.9185 56.1623 19.8215C56.1674 19.8165 56.1726 19.8112 56.1777 19.806C56.187 19.7964 56.1962 19.7869 56.2055 19.7791C56.6075 19.3727 57.0876 19.0636 57.7153 18.8917L57.4363 18.7321H57.4198ZM52.3692 18.0025L54.8022 16.7393L55.67 11.7856L52.3692 12.889V18.0025ZM48.4858 10.9186L52.1045 12.3272L55.7234 10.9186C55.4177 10.2011 53.9981 9.59058 52.1045 9.58858C50.2131 9.59058 48.7935 10.2011 48.4858 10.9186Z" fill="black" data-color-group="3"/></g></svg>